<mxfile host="Electron" modified="2024-05-22T23:49:40.507Z" agent="Mozilla/5.0 (Windows NT 10.0; Win64; x64) AppleWebKit/537.36 (KHTML, like Gecko) draw.io/23.0.2 Chrome/120.0.6099.109 Electron/28.1.0 Safari/537.36" etag="D3hydWluG1L17IOkq3Zy" version="23.0.2" type="device" pages="2">
  <diagram name="Страница — 1" id="AqT54YZKVvTG2FDtbktm">
    <mxGraphModel dx="1730" dy="1085" grid="1" gridSize="10" guides="1" tooltips="1" connect="1" arrows="1" fold="1" page="0" pageScale="1" pageWidth="850" pageHeight="1100" math="0" shadow="0">
      <root>
        <mxCell id="0" />
        <mxCell id="1" parent="0" />
        <mxCell id="rA6WR066txMyiisViT2W-2" value="Customer" style="shape=table;startSize=30;container=1;collapsible=1;childLayout=tableLayout;fixedRows=1;rowLines=0;fontStyle=1;align=center;resizeLast=1;labelBackgroundColor=none;rounded=0;" parent="1" vertex="1">
          <mxGeometry x="480" y="200" width="280" height="160" as="geometry" />
        </mxCell>
        <mxCell id="rA6WR066txMyiisViT2W-3" value="" style="shape=partialRectangle;collapsible=0;dropTarget=0;pointerEvents=0;fillColor=none;points=[[0,0.5],[1,0.5]];portConstraint=eastwest;top=0;left=0;right=0;bottom=1;labelBackgroundColor=none;rounded=0;" parent="rA6WR066txMyiisViT2W-2" vertex="1">
          <mxGeometry y="30" width="280" height="30" as="geometry" />
        </mxCell>
        <mxCell id="rA6WR066txMyiisViT2W-4" value="PK" style="shape=partialRectangle;overflow=hidden;connectable=0;fillColor=none;top=0;left=0;bottom=0;right=0;fontStyle=1;labelBackgroundColor=none;rounded=0;" parent="rA6WR066txMyiisViT2W-3" vertex="1">
          <mxGeometry width="30" height="30" as="geometry">
            <mxRectangle width="30" height="30" as="alternateBounds" />
          </mxGeometry>
        </mxCell>
        <mxCell id="rA6WR066txMyiisViT2W-5" value="customer_id UUID NOT NULL " style="shape=partialRectangle;overflow=hidden;connectable=0;fillColor=none;top=0;left=0;bottom=0;right=0;align=left;spacingLeft=6;fontStyle=1;labelBackgroundColor=none;rounded=0;" parent="rA6WR066txMyiisViT2W-3" vertex="1">
          <mxGeometry x="30" width="250" height="30" as="geometry">
            <mxRectangle width="250" height="30" as="alternateBounds" />
          </mxGeometry>
        </mxCell>
        <mxCell id="9jZ189GhqvGMuHx-gGZv-7" value="" style="shape=partialRectangle;collapsible=0;dropTarget=0;pointerEvents=0;fillColor=none;points=[[0,0.5],[1,0.5]];portConstraint=eastwest;top=0;left=0;right=0;bottom=0;labelBackgroundColor=none;rounded=0;" parent="rA6WR066txMyiisViT2W-2" vertex="1">
          <mxGeometry y="60" width="280" height="30" as="geometry" />
        </mxCell>
        <mxCell id="9jZ189GhqvGMuHx-gGZv-8" value="" style="shape=partialRectangle;overflow=hidden;connectable=0;fillColor=none;top=0;left=0;bottom=0;right=0;labelBackgroundColor=none;rounded=0;" parent="9jZ189GhqvGMuHx-gGZv-7" vertex="1">
          <mxGeometry width="30" height="30" as="geometry">
            <mxRectangle width="30" height="30" as="alternateBounds" />
          </mxGeometry>
        </mxCell>
        <mxCell id="9jZ189GhqvGMuHx-gGZv-9" value="customer_name varchar(50) NOT NULL" style="shape=partialRectangle;overflow=hidden;connectable=0;fillColor=none;top=0;left=0;bottom=0;right=0;align=left;spacingLeft=6;labelBackgroundColor=none;rounded=0;" parent="9jZ189GhqvGMuHx-gGZv-7" vertex="1">
          <mxGeometry x="30" width="250" height="30" as="geometry">
            <mxRectangle width="250" height="30" as="alternateBounds" />
          </mxGeometry>
        </mxCell>
        <mxCell id="9jZ189GhqvGMuHx-gGZv-10" value="" style="shape=partialRectangle;collapsible=0;dropTarget=0;pointerEvents=0;fillColor=none;points=[[0,0.5],[1,0.5]];portConstraint=eastwest;top=0;left=0;right=0;bottom=0;labelBackgroundColor=none;rounded=0;" parent="rA6WR066txMyiisViT2W-2" vertex="1">
          <mxGeometry y="90" width="280" height="30" as="geometry" />
        </mxCell>
        <mxCell id="9jZ189GhqvGMuHx-gGZv-11" value="" style="shape=partialRectangle;overflow=hidden;connectable=0;fillColor=none;top=0;left=0;bottom=0;right=0;labelBackgroundColor=none;rounded=0;" parent="9jZ189GhqvGMuHx-gGZv-10" vertex="1">
          <mxGeometry width="30" height="30" as="geometry">
            <mxRectangle width="30" height="30" as="alternateBounds" />
          </mxGeometry>
        </mxCell>
        <mxCell id="9jZ189GhqvGMuHx-gGZv-12" value="customer_email varchar(100)" style="shape=partialRectangle;overflow=hidden;connectable=0;fillColor=none;top=0;left=0;bottom=0;right=0;align=left;spacingLeft=6;labelBackgroundColor=none;rounded=0;" parent="9jZ189GhqvGMuHx-gGZv-10" vertex="1">
          <mxGeometry x="30" width="250" height="30" as="geometry">
            <mxRectangle width="250" height="30" as="alternateBounds" />
          </mxGeometry>
        </mxCell>
        <mxCell id="rA6WR066txMyiisViT2W-12" value="" style="shape=partialRectangle;collapsible=0;dropTarget=0;pointerEvents=0;fillColor=none;points=[[0,0.5],[1,0.5]];portConstraint=eastwest;top=0;left=0;right=0;bottom=0;labelBackgroundColor=none;rounded=0;" parent="rA6WR066txMyiisViT2W-2" vertex="1">
          <mxGeometry y="120" width="280" height="30" as="geometry" />
        </mxCell>
        <mxCell id="rA6WR066txMyiisViT2W-13" value="" style="shape=partialRectangle;overflow=hidden;connectable=0;fillColor=none;top=0;left=0;bottom=0;right=0;labelBackgroundColor=none;rounded=0;" parent="rA6WR066txMyiisViT2W-12" vertex="1">
          <mxGeometry width="30" height="30" as="geometry">
            <mxRectangle width="30" height="30" as="alternateBounds" />
          </mxGeometry>
        </mxCell>
        <mxCell id="rA6WR066txMyiisViT2W-14" value="customer_addres varchar(100) NOT NULL" style="shape=partialRectangle;overflow=hidden;connectable=0;fillColor=none;top=0;left=0;bottom=0;right=0;align=left;spacingLeft=6;labelBackgroundColor=none;rounded=0;" parent="rA6WR066txMyiisViT2W-12" vertex="1">
          <mxGeometry x="30" width="250" height="30" as="geometry">
            <mxRectangle width="250" height="30" as="alternateBounds" />
          </mxGeometry>
        </mxCell>
        <mxCell id="rA6WR066txMyiisViT2W-15" value="Manager" style="shape=table;startSize=30;container=1;collapsible=1;childLayout=tableLayout;fixedRows=1;rowLines=0;fontStyle=1;align=center;resizeLast=1;labelBackgroundColor=none;rounded=0;" parent="1" vertex="1">
          <mxGeometry x="-240" y="200" width="281" height="130" as="geometry" />
        </mxCell>
        <mxCell id="rA6WR066txMyiisViT2W-16" value="" style="shape=partialRectangle;collapsible=0;dropTarget=0;pointerEvents=0;fillColor=none;points=[[0,0.5],[1,0.5]];portConstraint=eastwest;top=0;left=0;right=0;bottom=1;labelBackgroundColor=none;rounded=0;" parent="rA6WR066txMyiisViT2W-15" vertex="1">
          <mxGeometry y="30" width="281" height="30" as="geometry" />
        </mxCell>
        <mxCell id="rA6WR066txMyiisViT2W-17" value="PK" style="shape=partialRectangle;overflow=hidden;connectable=0;fillColor=none;top=0;left=0;bottom=0;right=0;fontStyle=1;labelBackgroundColor=none;rounded=0;" parent="rA6WR066txMyiisViT2W-16" vertex="1">
          <mxGeometry width="30" height="30" as="geometry">
            <mxRectangle width="30" height="30" as="alternateBounds" />
          </mxGeometry>
        </mxCell>
        <mxCell id="rA6WR066txMyiisViT2W-18" value="manager_id UUID NOT NULL " style="shape=partialRectangle;overflow=hidden;connectable=0;fillColor=none;top=0;left=0;bottom=0;right=0;align=left;spacingLeft=6;fontStyle=1;labelBackgroundColor=none;rounded=0;" parent="rA6WR066txMyiisViT2W-16" vertex="1">
          <mxGeometry x="30" width="251" height="30" as="geometry">
            <mxRectangle width="251" height="30" as="alternateBounds" />
          </mxGeometry>
        </mxCell>
        <mxCell id="rA6WR066txMyiisViT2W-19" value="" style="shape=partialRectangle;collapsible=0;dropTarget=0;pointerEvents=0;fillColor=none;points=[[0,0.5],[1,0.5]];portConstraint=eastwest;top=0;left=0;right=0;bottom=0;labelBackgroundColor=none;rounded=0;" parent="rA6WR066txMyiisViT2W-15" vertex="1">
          <mxGeometry y="60" width="281" height="30" as="geometry" />
        </mxCell>
        <mxCell id="rA6WR066txMyiisViT2W-20" value="" style="shape=partialRectangle;overflow=hidden;connectable=0;fillColor=none;top=0;left=0;bottom=0;right=0;labelBackgroundColor=none;rounded=0;" parent="rA6WR066txMyiisViT2W-19" vertex="1">
          <mxGeometry width="30" height="30" as="geometry">
            <mxRectangle width="30" height="30" as="alternateBounds" />
          </mxGeometry>
        </mxCell>
        <mxCell id="rA6WR066txMyiisViT2W-21" value="manager_name varchar(50) NOT NULL" style="shape=partialRectangle;overflow=hidden;connectable=0;fillColor=none;top=0;left=0;bottom=0;right=0;align=left;spacingLeft=6;labelBackgroundColor=none;rounded=0;" parent="rA6WR066txMyiisViT2W-19" vertex="1">
          <mxGeometry x="30" width="251" height="30" as="geometry">
            <mxRectangle width="251" height="30" as="alternateBounds" />
          </mxGeometry>
        </mxCell>
        <mxCell id="rA6WR066txMyiisViT2W-22" value="" style="shape=partialRectangle;collapsible=0;dropTarget=0;pointerEvents=0;fillColor=none;points=[[0,0.5],[1,0.5]];portConstraint=eastwest;top=0;left=0;right=0;bottom=0;labelBackgroundColor=none;rounded=0;" parent="rA6WR066txMyiisViT2W-15" vertex="1">
          <mxGeometry y="90" width="281" height="30" as="geometry" />
        </mxCell>
        <mxCell id="rA6WR066txMyiisViT2W-23" value="" style="shape=partialRectangle;overflow=hidden;connectable=0;fillColor=none;top=0;left=0;bottom=0;right=0;labelBackgroundColor=none;rounded=0;" parent="rA6WR066txMyiisViT2W-22" vertex="1">
          <mxGeometry width="30" height="30" as="geometry">
            <mxRectangle width="30" height="30" as="alternateBounds" />
          </mxGeometry>
        </mxCell>
        <mxCell id="rA6WR066txMyiisViT2W-24" value="manager_surname varchar(50) NOT NULL" style="shape=partialRectangle;overflow=hidden;connectable=0;fillColor=none;top=0;left=0;bottom=0;right=0;align=left;spacingLeft=6;labelBackgroundColor=none;rounded=0;" parent="rA6WR066txMyiisViT2W-22" vertex="1">
          <mxGeometry x="30" width="251" height="30" as="geometry">
            <mxRectangle width="251" height="30" as="alternateBounds" />
          </mxGeometry>
        </mxCell>
        <mxCell id="rA6WR066txMyiisViT2W-31" value="Seller" style="shape=table;startSize=30;container=1;collapsible=1;childLayout=tableLayout;fixedRows=1;rowLines=0;fontStyle=1;align=center;resizeLast=1;labelBackgroundColor=none;rounded=0;" parent="1" vertex="1">
          <mxGeometry x="120" y="200" width="270" height="160" as="geometry" />
        </mxCell>
        <mxCell id="rA6WR066txMyiisViT2W-32" value="" style="shape=partialRectangle;collapsible=0;dropTarget=0;pointerEvents=0;fillColor=none;points=[[0,0.5],[1,0.5]];portConstraint=eastwest;top=0;left=0;right=0;bottom=1;labelBackgroundColor=none;rounded=0;" parent="rA6WR066txMyiisViT2W-31" vertex="1">
          <mxGeometry y="30" width="270" height="30" as="geometry" />
        </mxCell>
        <mxCell id="rA6WR066txMyiisViT2W-33" value="PK" style="shape=partialRectangle;overflow=hidden;connectable=0;fillColor=none;top=0;left=0;bottom=0;right=0;fontStyle=1;labelBackgroundColor=none;rounded=0;" parent="rA6WR066txMyiisViT2W-32" vertex="1">
          <mxGeometry width="30" height="30" as="geometry">
            <mxRectangle width="30" height="30" as="alternateBounds" />
          </mxGeometry>
        </mxCell>
        <mxCell id="rA6WR066txMyiisViT2W-34" value="seller_id UUID NOT NULL" style="shape=partialRectangle;overflow=hidden;connectable=0;fillColor=none;top=0;left=0;bottom=0;right=0;align=left;spacingLeft=6;fontStyle=1;labelBackgroundColor=none;rounded=0;" parent="rA6WR066txMyiisViT2W-32" vertex="1">
          <mxGeometry x="30" width="240" height="30" as="geometry">
            <mxRectangle width="240" height="30" as="alternateBounds" />
          </mxGeometry>
        </mxCell>
        <mxCell id="rA6WR066txMyiisViT2W-35" value="" style="shape=partialRectangle;collapsible=0;dropTarget=0;pointerEvents=0;fillColor=none;points=[[0,0.5],[1,0.5]];portConstraint=eastwest;top=0;left=0;right=0;bottom=0;labelBackgroundColor=none;rounded=0;" parent="rA6WR066txMyiisViT2W-31" vertex="1">
          <mxGeometry y="60" width="270" height="30" as="geometry" />
        </mxCell>
        <mxCell id="rA6WR066txMyiisViT2W-36" value="FK1" style="shape=partialRectangle;overflow=hidden;connectable=0;fillColor=none;top=0;left=0;bottom=0;right=0;labelBackgroundColor=none;rounded=0;" parent="rA6WR066txMyiisViT2W-35" vertex="1">
          <mxGeometry width="30" height="30" as="geometry">
            <mxRectangle width="30" height="30" as="alternateBounds" />
          </mxGeometry>
        </mxCell>
        <mxCell id="rA6WR066txMyiisViT2W-37" value="fk_manager_id UUID NOT NULL" style="shape=partialRectangle;overflow=hidden;connectable=0;fillColor=none;top=0;left=0;bottom=0;right=0;align=left;spacingLeft=6;labelBackgroundColor=none;rounded=0;" parent="rA6WR066txMyiisViT2W-35" vertex="1">
          <mxGeometry x="30" width="240" height="30" as="geometry">
            <mxRectangle width="240" height="30" as="alternateBounds" />
          </mxGeometry>
        </mxCell>
        <mxCell id="rA6WR066txMyiisViT2W-38" value="" style="shape=partialRectangle;collapsible=0;dropTarget=0;pointerEvents=0;fillColor=none;points=[[0,0.5],[1,0.5]];portConstraint=eastwest;top=0;left=0;right=0;bottom=0;labelBackgroundColor=none;rounded=0;" parent="rA6WR066txMyiisViT2W-31" vertex="1">
          <mxGeometry y="90" width="270" height="30" as="geometry" />
        </mxCell>
        <mxCell id="rA6WR066txMyiisViT2W-39" value="" style="shape=partialRectangle;overflow=hidden;connectable=0;fillColor=none;top=0;left=0;bottom=0;right=0;labelBackgroundColor=none;rounded=0;" parent="rA6WR066txMyiisViT2W-38" vertex="1">
          <mxGeometry width="30" height="30" as="geometry">
            <mxRectangle width="30" height="30" as="alternateBounds" />
          </mxGeometry>
        </mxCell>
        <mxCell id="rA6WR066txMyiisViT2W-40" value="seller_name varchar(50) NOT NULL" style="shape=partialRectangle;overflow=hidden;connectable=0;fillColor=none;top=0;left=0;bottom=0;right=0;align=left;spacingLeft=6;labelBackgroundColor=none;rounded=0;" parent="rA6WR066txMyiisViT2W-38" vertex="1">
          <mxGeometry x="30" width="240" height="30" as="geometry">
            <mxRectangle width="240" height="30" as="alternateBounds" />
          </mxGeometry>
        </mxCell>
        <mxCell id="rA6WR066txMyiisViT2W-41" value="" style="shape=partialRectangle;collapsible=0;dropTarget=0;pointerEvents=0;fillColor=none;points=[[0,0.5],[1,0.5]];portConstraint=eastwest;top=0;left=0;right=0;bottom=0;labelBackgroundColor=none;rounded=0;" parent="rA6WR066txMyiisViT2W-31" vertex="1">
          <mxGeometry y="120" width="270" height="30" as="geometry" />
        </mxCell>
        <mxCell id="rA6WR066txMyiisViT2W-42" value="" style="shape=partialRectangle;overflow=hidden;connectable=0;fillColor=none;top=0;left=0;bottom=0;right=0;labelBackgroundColor=none;rounded=0;" parent="rA6WR066txMyiisViT2W-41" vertex="1">
          <mxGeometry width="30" height="30" as="geometry">
            <mxRectangle width="30" height="30" as="alternateBounds" />
          </mxGeometry>
        </mxCell>
        <mxCell id="rA6WR066txMyiisViT2W-43" value="seller_surname varchar (50) NOT NULL" style="shape=partialRectangle;overflow=hidden;connectable=0;fillColor=none;top=0;left=0;bottom=0;right=0;align=left;spacingLeft=6;labelBackgroundColor=none;rounded=0;" parent="rA6WR066txMyiisViT2W-41" vertex="1">
          <mxGeometry x="30" width="240" height="30" as="geometry">
            <mxRectangle width="240" height="30" as="alternateBounds" />
          </mxGeometry>
        </mxCell>
        <mxCell id="rA6WR066txMyiisViT2W-44" value="" style="endArrow=ERmany;startArrow=ERone;endFill=0;startFill=0;exitX=1;exitY=0.5;exitDx=0;exitDy=0;labelBackgroundColor=none;fontColor=default;edgeStyle=orthogonalEdgeStyle;elbow=vertical;rounded=1;" parent="1" source="rA6WR066txMyiisViT2W-16" target="rA6WR066txMyiisViT2W-35" edge="1">
          <mxGeometry width="100" height="100" relative="1" as="geometry">
            <mxPoint x="50" y="270" as="sourcePoint" />
            <mxPoint x="140" y="300" as="targetPoint" />
            <Array as="points">
              <mxPoint x="90" y="245" />
              <mxPoint x="90" y="275" />
            </Array>
          </mxGeometry>
        </mxCell>
        <mxCell id="rA6WR066txMyiisViT2W-45" value="Courier" style="shape=table;startSize=30;container=1;collapsible=1;childLayout=tableLayout;fixedRows=1;rowLines=0;fontStyle=1;align=center;resizeLast=1;labelBackgroundColor=none;rounded=0;" parent="1" vertex="1">
          <mxGeometry x="120" y="440" width="270" height="190" as="geometry" />
        </mxCell>
        <mxCell id="rA6WR066txMyiisViT2W-46" value="" style="shape=partialRectangle;collapsible=0;dropTarget=0;pointerEvents=0;fillColor=none;points=[[0,0.5],[1,0.5]];portConstraint=eastwest;top=0;left=0;right=0;bottom=1;labelBackgroundColor=none;rounded=0;" parent="rA6WR066txMyiisViT2W-45" vertex="1">
          <mxGeometry y="30" width="270" height="30" as="geometry" />
        </mxCell>
        <mxCell id="rA6WR066txMyiisViT2W-47" value="PK" style="shape=partialRectangle;overflow=hidden;connectable=0;fillColor=none;top=0;left=0;bottom=0;right=0;fontStyle=1;labelBackgroundColor=none;rounded=0;" parent="rA6WR066txMyiisViT2W-46" vertex="1">
          <mxGeometry width="30" height="30" as="geometry">
            <mxRectangle width="30" height="30" as="alternateBounds" />
          </mxGeometry>
        </mxCell>
        <mxCell id="rA6WR066txMyiisViT2W-48" value="сourier_id UUID NOT NULL" style="shape=partialRectangle;overflow=hidden;connectable=0;fillColor=none;top=0;left=0;bottom=0;right=0;align=left;spacingLeft=6;fontStyle=1;labelBackgroundColor=none;rounded=0;" parent="rA6WR066txMyiisViT2W-46" vertex="1">
          <mxGeometry x="30" width="240" height="30" as="geometry">
            <mxRectangle width="240" height="30" as="alternateBounds" />
          </mxGeometry>
        </mxCell>
        <mxCell id="rA6WR066txMyiisViT2W-49" value="" style="shape=partialRectangle;collapsible=0;dropTarget=0;pointerEvents=0;fillColor=none;points=[[0,0.5],[1,0.5]];portConstraint=eastwest;top=0;left=0;right=0;bottom=0;labelBackgroundColor=none;rounded=0;" parent="rA6WR066txMyiisViT2W-45" vertex="1">
          <mxGeometry y="60" width="270" height="30" as="geometry" />
        </mxCell>
        <mxCell id="rA6WR066txMyiisViT2W-50" value="FK1" style="shape=partialRectangle;overflow=hidden;connectable=0;fillColor=none;top=0;left=0;bottom=0;right=0;labelBackgroundColor=none;rounded=0;" parent="rA6WR066txMyiisViT2W-49" vertex="1">
          <mxGeometry width="30" height="30" as="geometry">
            <mxRectangle width="30" height="30" as="alternateBounds" />
          </mxGeometry>
        </mxCell>
        <mxCell id="rA6WR066txMyiisViT2W-51" value="fk_manager_int UUID NOT NULL" style="shape=partialRectangle;overflow=hidden;connectable=0;fillColor=none;top=0;left=0;bottom=0;right=0;align=left;spacingLeft=6;labelBackgroundColor=none;rounded=0;" parent="rA6WR066txMyiisViT2W-49" vertex="1">
          <mxGeometry x="30" width="240" height="30" as="geometry">
            <mxRectangle width="240" height="30" as="alternateBounds" />
          </mxGeometry>
        </mxCell>
        <mxCell id="rA6WR066txMyiisViT2W-52" value="" style="shape=partialRectangle;collapsible=0;dropTarget=0;pointerEvents=0;fillColor=none;points=[[0,0.5],[1,0.5]];portConstraint=eastwest;top=0;left=0;right=0;bottom=0;labelBackgroundColor=none;rounded=0;" parent="rA6WR066txMyiisViT2W-45" vertex="1">
          <mxGeometry y="90" width="270" height="30" as="geometry" />
        </mxCell>
        <mxCell id="rA6WR066txMyiisViT2W-53" value="" style="shape=partialRectangle;overflow=hidden;connectable=0;fillColor=none;top=0;left=0;bottom=0;right=0;labelBackgroundColor=none;rounded=0;" parent="rA6WR066txMyiisViT2W-52" vertex="1">
          <mxGeometry width="30" height="30" as="geometry">
            <mxRectangle width="30" height="30" as="alternateBounds" />
          </mxGeometry>
        </mxCell>
        <mxCell id="rA6WR066txMyiisViT2W-54" value="сourier_name varchar(50) NOT NULL" style="shape=partialRectangle;overflow=hidden;connectable=0;fillColor=none;top=0;left=0;bottom=0;right=0;align=left;spacingLeft=6;labelBackgroundColor=none;rounded=0;" parent="rA6WR066txMyiisViT2W-52" vertex="1">
          <mxGeometry x="30" width="240" height="30" as="geometry">
            <mxRectangle width="240" height="30" as="alternateBounds" />
          </mxGeometry>
        </mxCell>
        <mxCell id="rA6WR066txMyiisViT2W-55" value="" style="shape=partialRectangle;collapsible=0;dropTarget=0;pointerEvents=0;fillColor=none;points=[[0,0.5],[1,0.5]];portConstraint=eastwest;top=0;left=0;right=0;bottom=0;labelBackgroundColor=none;rounded=0;" parent="rA6WR066txMyiisViT2W-45" vertex="1">
          <mxGeometry y="120" width="270" height="30" as="geometry" />
        </mxCell>
        <mxCell id="rA6WR066txMyiisViT2W-56" value="" style="shape=partialRectangle;overflow=hidden;connectable=0;fillColor=none;top=0;left=0;bottom=0;right=0;labelBackgroundColor=none;rounded=0;" parent="rA6WR066txMyiisViT2W-55" vertex="1">
          <mxGeometry width="30" height="30" as="geometry">
            <mxRectangle width="30" height="30" as="alternateBounds" />
          </mxGeometry>
        </mxCell>
        <mxCell id="rA6WR066txMyiisViT2W-57" value="сourier_surname char(50) NOT NULL" style="shape=partialRectangle;overflow=hidden;connectable=0;fillColor=none;top=0;left=0;bottom=0;right=0;align=left;spacingLeft=6;labelBackgroundColor=none;rounded=0;" parent="rA6WR066txMyiisViT2W-55" vertex="1">
          <mxGeometry x="30" width="240" height="30" as="geometry">
            <mxRectangle width="240" height="30" as="alternateBounds" />
          </mxGeometry>
        </mxCell>
        <mxCell id="rA6WR066txMyiisViT2W-58" value="" style="shape=partialRectangle;collapsible=0;dropTarget=0;pointerEvents=0;fillColor=#FF6666;points=[[0,0.5],[1,0.5]];portConstraint=eastwest;top=0;left=0;right=0;bottom=0;labelBackgroundColor=none;rounded=0;fontColor=#ffffff;strokeColor=#B20000;" parent="rA6WR066txMyiisViT2W-45" vertex="1">
          <mxGeometry y="150" width="270" height="30" as="geometry" />
        </mxCell>
        <mxCell id="rA6WR066txMyiisViT2W-59" value="FK2" style="shape=partialRectangle;overflow=hidden;connectable=0;fillColor=none;top=0;left=0;bottom=0;right=0;labelBackgroundColor=none;rounded=0;" parent="rA6WR066txMyiisViT2W-58" vertex="1">
          <mxGeometry width="30" height="30" as="geometry">
            <mxRectangle width="30" height="30" as="alternateBounds" />
          </mxGeometry>
        </mxCell>
        <mxCell id="rA6WR066txMyiisViT2W-60" value="fk_order_id UUID NOT NULL" style="shape=partialRectangle;overflow=hidden;connectable=0;fillColor=none;top=0;left=0;bottom=0;right=0;align=left;spacingLeft=6;labelBackgroundColor=none;rounded=0;" parent="rA6WR066txMyiisViT2W-58" vertex="1">
          <mxGeometry x="30" width="240" height="30" as="geometry">
            <mxRectangle width="240" height="30" as="alternateBounds" />
          </mxGeometry>
        </mxCell>
        <mxCell id="rA6WR066txMyiisViT2W-61" value="" style="edgeStyle=elbowEdgeStyle;endArrow=ERmany;startArrow=ERone;endFill=0;startFill=0;exitX=1;exitY=0.5;exitDx=0;exitDy=0;labelBackgroundColor=none;fontColor=default;rounded=1;curved=0;" parent="1" source="rA6WR066txMyiisViT2W-16" target="rA6WR066txMyiisViT2W-49" edge="1">
          <mxGeometry width="100" height="100" relative="1" as="geometry">
            <mxPoint x="40" y="255" as="sourcePoint" />
            <mxPoint x="130" y="285" as="targetPoint" />
            <Array as="points">
              <mxPoint x="70" y="380" />
            </Array>
          </mxGeometry>
        </mxCell>
        <mxCell id="rA6WR066txMyiisViT2W-62" value="Basket" style="shape=table;startSize=30;container=1;collapsible=1;childLayout=tableLayout;fixedRows=1;rowLines=0;fontStyle=1;align=center;resizeLast=1;labelBackgroundColor=none;rounded=0;" parent="1" vertex="1">
          <mxGeometry x="930" y="200" width="280" height="190" as="geometry" />
        </mxCell>
        <mxCell id="rA6WR066txMyiisViT2W-63" value="" style="shape=partialRectangle;collapsible=0;dropTarget=0;pointerEvents=0;fillColor=none;points=[[0,0.5],[1,0.5]];portConstraint=eastwest;top=0;left=0;right=0;bottom=1;labelBackgroundColor=none;rounded=0;" parent="rA6WR066txMyiisViT2W-62" vertex="1">
          <mxGeometry y="30" width="280" height="30" as="geometry" />
        </mxCell>
        <mxCell id="rA6WR066txMyiisViT2W-64" value="PK" style="shape=partialRectangle;overflow=hidden;connectable=0;fillColor=none;top=0;left=0;bottom=0;right=0;fontStyle=1;labelBackgroundColor=none;rounded=0;" parent="rA6WR066txMyiisViT2W-63" vertex="1">
          <mxGeometry width="30" height="30" as="geometry">
            <mxRectangle width="30" height="30" as="alternateBounds" />
          </mxGeometry>
        </mxCell>
        <mxCell id="rA6WR066txMyiisViT2W-65" value="basket_id SERIAL NOT NULL " style="shape=partialRectangle;overflow=hidden;connectable=0;fillColor=none;top=0;left=0;bottom=0;right=0;align=left;spacingLeft=6;fontStyle=1;labelBackgroundColor=none;rounded=0;" parent="rA6WR066txMyiisViT2W-63" vertex="1">
          <mxGeometry x="30" width="250" height="30" as="geometry">
            <mxRectangle width="250" height="30" as="alternateBounds" />
          </mxGeometry>
        </mxCell>
        <mxCell id="rA6WR066txMyiisViT2W-69" value="" style="shape=partialRectangle;collapsible=0;dropTarget=0;pointerEvents=0;fillColor=none;points=[[0,0.5],[1,0.5]];portConstraint=eastwest;top=0;left=0;right=0;bottom=0;labelBackgroundColor=none;rounded=0;" parent="rA6WR066txMyiisViT2W-62" vertex="1">
          <mxGeometry y="60" width="280" height="30" as="geometry" />
        </mxCell>
        <mxCell id="rA6WR066txMyiisViT2W-70" value="FK1" style="shape=partialRectangle;overflow=hidden;connectable=0;fillColor=none;top=0;left=0;bottom=0;right=0;labelBackgroundColor=none;rounded=0;" parent="rA6WR066txMyiisViT2W-69" vertex="1">
          <mxGeometry width="30" height="30" as="geometry">
            <mxRectangle width="30" height="30" as="alternateBounds" />
          </mxGeometry>
        </mxCell>
        <mxCell id="rA6WR066txMyiisViT2W-71" value="fk_product_id UUID NOT NULL" style="shape=partialRectangle;overflow=hidden;connectable=0;fillColor=none;top=0;left=0;bottom=0;right=0;align=left;spacingLeft=6;labelBackgroundColor=none;rounded=0;" parent="rA6WR066txMyiisViT2W-69" vertex="1">
          <mxGeometry x="30" width="250" height="30" as="geometry">
            <mxRectangle width="250" height="30" as="alternateBounds" />
          </mxGeometry>
        </mxCell>
        <mxCell id="zzIU1y1TvYAV49h6aCob-13" value="" style="shape=partialRectangle;collapsible=0;dropTarget=0;pointerEvents=0;fillColor=#e51400;points=[[0,0.5],[1,0.5]];portConstraint=eastwest;top=0;left=0;right=0;bottom=0;labelBackgroundColor=none;rounded=0;fontColor=#ffffff;strokeColor=#B20000;" parent="rA6WR066txMyiisViT2W-62" vertex="1">
          <mxGeometry y="90" width="280" height="30" as="geometry" />
        </mxCell>
        <mxCell id="zzIU1y1TvYAV49h6aCob-14" value="FK2" style="shape=partialRectangle;overflow=hidden;connectable=0;fillColor=none;top=0;left=0;bottom=0;right=0;labelBackgroundColor=none;rounded=0;" parent="zzIU1y1TvYAV49h6aCob-13" vertex="1">
          <mxGeometry width="30" height="30" as="geometry">
            <mxRectangle width="30" height="30" as="alternateBounds" />
          </mxGeometry>
        </mxCell>
        <mxCell id="zzIU1y1TvYAV49h6aCob-15" value="fk_product_property_id int NOT NULL" style="shape=partialRectangle;overflow=hidden;connectable=0;fillColor=none;top=0;left=0;bottom=0;right=0;align=left;spacingLeft=6;labelBackgroundColor=none;rounded=0;" parent="zzIU1y1TvYAV49h6aCob-13" vertex="1">
          <mxGeometry x="30" width="250" height="30" as="geometry">
            <mxRectangle width="250" height="30" as="alternateBounds" />
          </mxGeometry>
        </mxCell>
        <mxCell id="rA6WR066txMyiisViT2W-72" value="" style="shape=partialRectangle;collapsible=0;dropTarget=0;pointerEvents=0;fillColor=none;points=[[0,0.5],[1,0.5]];portConstraint=eastwest;top=0;left=0;right=0;bottom=0;labelBackgroundColor=none;rounded=0;" parent="rA6WR066txMyiisViT2W-62" vertex="1">
          <mxGeometry y="120" width="280" height="30" as="geometry" />
        </mxCell>
        <mxCell id="rA6WR066txMyiisViT2W-73" value="" style="shape=partialRectangle;overflow=hidden;connectable=0;fillColor=none;top=0;left=0;bottom=0;right=0;labelBackgroundColor=none;rounded=0;" parent="rA6WR066txMyiisViT2W-72" vertex="1">
          <mxGeometry width="30" height="30" as="geometry">
            <mxRectangle width="30" height="30" as="alternateBounds" />
          </mxGeometry>
        </mxCell>
        <mxCell id="rA6WR066txMyiisViT2W-74" value="product_count int NOT NULL" style="shape=partialRectangle;overflow=hidden;connectable=0;fillColor=none;top=0;left=0;bottom=0;right=0;align=left;spacingLeft=6;labelBackgroundColor=none;rounded=0;" parent="rA6WR066txMyiisViT2W-72" vertex="1">
          <mxGeometry x="30" width="250" height="30" as="geometry">
            <mxRectangle width="250" height="30" as="alternateBounds" />
          </mxGeometry>
        </mxCell>
        <mxCell id="seB3tbeGy-2bm3QOvi_t-13" value="" style="shape=partialRectangle;collapsible=0;dropTarget=0;pointerEvents=0;fillColor=none;points=[[0,0.5],[1,0.5]];portConstraint=eastwest;top=0;left=0;right=0;bottom=0;labelBackgroundColor=none;rounded=0;" parent="rA6WR066txMyiisViT2W-62" vertex="1">
          <mxGeometry y="150" width="280" height="30" as="geometry" />
        </mxCell>
        <mxCell id="seB3tbeGy-2bm3QOvi_t-14" value="" style="shape=partialRectangle;overflow=hidden;connectable=0;fillColor=none;top=0;left=0;bottom=0;right=0;labelBackgroundColor=none;rounded=0;" parent="seB3tbeGy-2bm3QOvi_t-13" vertex="1">
          <mxGeometry width="30" height="30" as="geometry">
            <mxRectangle width="30" height="30" as="alternateBounds" />
          </mxGeometry>
        </mxCell>
        <mxCell id="seB3tbeGy-2bm3QOvi_t-15" value="customer_id UUID NOT NULL" style="shape=partialRectangle;overflow=hidden;connectable=0;fillColor=none;top=0;left=0;bottom=0;right=0;align=left;spacingLeft=6;labelBackgroundColor=none;rounded=0;" parent="seB3tbeGy-2bm3QOvi_t-13" vertex="1">
          <mxGeometry x="30" width="250" height="30" as="geometry">
            <mxRectangle width="250" height="30" as="alternateBounds" />
          </mxGeometry>
        </mxCell>
        <mxCell id="rA6WR066txMyiisViT2W-76" value="Order" style="shape=table;startSize=30;container=1;collapsible=1;childLayout=tableLayout;fixedRows=1;rowLines=0;fontStyle=1;align=center;resizeLast=1;labelBackgroundColor=none;rounded=0;" parent="1" vertex="1">
          <mxGeometry x="480" y="850" width="260" height="340" as="geometry" />
        </mxCell>
        <mxCell id="rA6WR066txMyiisViT2W-77" value="" style="shape=partialRectangle;collapsible=0;dropTarget=0;pointerEvents=0;fillColor=none;points=[[0,0.5],[1,0.5]];portConstraint=eastwest;top=0;left=0;right=0;bottom=1;labelBackgroundColor=none;rounded=0;" parent="rA6WR066txMyiisViT2W-76" vertex="1">
          <mxGeometry y="30" width="260" height="30" as="geometry" />
        </mxCell>
        <mxCell id="rA6WR066txMyiisViT2W-78" value="PK" style="shape=partialRectangle;overflow=hidden;connectable=0;fillColor=none;top=0;left=0;bottom=0;right=0;fontStyle=1;labelBackgroundColor=none;rounded=0;" parent="rA6WR066txMyiisViT2W-77" vertex="1">
          <mxGeometry width="30" height="30" as="geometry">
            <mxRectangle width="30" height="30" as="alternateBounds" />
          </mxGeometry>
        </mxCell>
        <mxCell id="rA6WR066txMyiisViT2W-79" value="order_id UUID NOT NULL " style="shape=partialRectangle;overflow=hidden;connectable=0;fillColor=none;top=0;left=0;bottom=0;right=0;align=left;spacingLeft=6;fontStyle=1;labelBackgroundColor=none;rounded=0;" parent="rA6WR066txMyiisViT2W-77" vertex="1">
          <mxGeometry x="30" width="230" height="30" as="geometry">
            <mxRectangle width="230" height="30" as="alternateBounds" />
          </mxGeometry>
        </mxCell>
        <mxCell id="rA6WR066txMyiisViT2W-89" value="" style="shape=partialRectangle;collapsible=0;dropTarget=0;pointerEvents=0;fillColor=#FF6666;points=[[0,0.5],[1,0.5]];portConstraint=eastwest;top=0;left=0;right=0;bottom=0;labelBackgroundColor=none;rounded=0;" parent="rA6WR066txMyiisViT2W-76" vertex="1">
          <mxGeometry y="60" width="260" height="30" as="geometry" />
        </mxCell>
        <mxCell id="rA6WR066txMyiisViT2W-90" value="FK1" style="shape=partialRectangle;overflow=hidden;connectable=0;fillColor=none;top=0;left=0;bottom=0;right=0;labelBackgroundColor=none;rounded=0;" parent="rA6WR066txMyiisViT2W-89" vertex="1">
          <mxGeometry width="30" height="30" as="geometry">
            <mxRectangle width="30" height="30" as="alternateBounds" />
          </mxGeometry>
        </mxCell>
        <mxCell id="rA6WR066txMyiisViT2W-91" value="fk_order_details_id UUID NOT NULL" style="shape=partialRectangle;overflow=hidden;connectable=0;fillColor=none;top=0;left=0;bottom=0;right=0;align=left;spacingLeft=6;labelBackgroundColor=none;rounded=0;" parent="rA6WR066txMyiisViT2W-89" vertex="1">
          <mxGeometry x="30" width="230" height="30" as="geometry">
            <mxRectangle width="230" height="30" as="alternateBounds" />
          </mxGeometry>
        </mxCell>
        <mxCell id="rA6WR066txMyiisViT2W-80" value="" style="shape=partialRectangle;collapsible=0;dropTarget=0;pointerEvents=0;fillColor=none;points=[[0,0.5],[1,0.5]];portConstraint=eastwest;top=0;left=0;right=0;bottom=0;labelBackgroundColor=none;rounded=0;strokeColor=#FF6666;" parent="rA6WR066txMyiisViT2W-76" vertex="1">
          <mxGeometry y="90" width="260" height="30" as="geometry" />
        </mxCell>
        <mxCell id="rA6WR066txMyiisViT2W-81" value="FK1" style="shape=partialRectangle;overflow=hidden;connectable=0;fillColor=none;top=0;left=0;bottom=0;right=0;labelBackgroundColor=none;rounded=0;" parent="rA6WR066txMyiisViT2W-80" vertex="1">
          <mxGeometry width="30" height="30" as="geometry">
            <mxRectangle width="30" height="30" as="alternateBounds" />
          </mxGeometry>
        </mxCell>
        <mxCell id="rA6WR066txMyiisViT2W-82" value="fk_customer_id UUID NOT NULL" style="shape=partialRectangle;overflow=hidden;connectable=0;fillColor=none;top=0;left=0;bottom=0;right=0;align=left;spacingLeft=6;labelBackgroundColor=none;rounded=0;" parent="rA6WR066txMyiisViT2W-80" vertex="1">
          <mxGeometry x="30" width="230" height="30" as="geometry">
            <mxRectangle width="230" height="30" as="alternateBounds" />
          </mxGeometry>
        </mxCell>
        <mxCell id="Y3WRB6qTo1Abw-VJ-6aR-20" value="" style="shape=partialRectangle;collapsible=0;dropTarget=0;pointerEvents=0;points=[[0,0.5],[1,0.5]];portConstraint=eastwest;top=0;left=0;right=0;bottom=0;labelBackgroundColor=none;rounded=0;fillColor=none;" parent="rA6WR066txMyiisViT2W-76" vertex="1">
          <mxGeometry y="120" width="260" height="30" as="geometry" />
        </mxCell>
        <mxCell id="Y3WRB6qTo1Abw-VJ-6aR-21" value="" style="shape=partialRectangle;overflow=hidden;connectable=0;fillColor=none;top=0;left=0;bottom=0;right=0;labelBackgroundColor=none;rounded=0;" parent="Y3WRB6qTo1Abw-VJ-6aR-20" vertex="1">
          <mxGeometry width="30" height="30" as="geometry">
            <mxRectangle width="30" height="30" as="alternateBounds" />
          </mxGeometry>
        </mxCell>
        <mxCell id="Y3WRB6qTo1Abw-VJ-6aR-22" value="order_status varchar(50) NOT NULL" style="shape=partialRectangle;overflow=hidden;connectable=0;fillColor=none;top=0;left=0;bottom=0;right=0;align=left;spacingLeft=6;labelBackgroundColor=none;rounded=0;" parent="Y3WRB6qTo1Abw-VJ-6aR-20" vertex="1">
          <mxGeometry x="30" width="230" height="30" as="geometry">
            <mxRectangle width="230" height="30" as="alternateBounds" />
          </mxGeometry>
        </mxCell>
        <mxCell id="Y3WRB6qTo1Abw-VJ-6aR-28" value="" style="shape=partialRectangle;collapsible=0;dropTarget=0;pointerEvents=0;points=[[0,0.5],[1,0.5]];portConstraint=eastwest;top=0;left=0;right=0;bottom=0;labelBackgroundColor=none;rounded=0;fillColor=none;" parent="rA6WR066txMyiisViT2W-76" vertex="1">
          <mxGeometry y="150" width="260" height="30" as="geometry" />
        </mxCell>
        <mxCell id="Y3WRB6qTo1Abw-VJ-6aR-29" value="" style="shape=partialRectangle;overflow=hidden;connectable=0;fillColor=none;top=0;left=0;bottom=0;right=0;labelBackgroundColor=none;rounded=0;" parent="Y3WRB6qTo1Abw-VJ-6aR-28" vertex="1">
          <mxGeometry width="30" height="30" as="geometry">
            <mxRectangle width="30" height="30" as="alternateBounds" />
          </mxGeometry>
        </mxCell>
        <mxCell id="Y3WRB6qTo1Abw-VJ-6aR-30" value="order_date date NOT NULL" style="shape=partialRectangle;overflow=hidden;connectable=0;fillColor=none;top=0;left=0;bottom=0;right=0;align=left;spacingLeft=6;labelBackgroundColor=none;rounded=0;" parent="Y3WRB6qTo1Abw-VJ-6aR-28" vertex="1">
          <mxGeometry x="30" width="230" height="30" as="geometry">
            <mxRectangle width="230" height="30" as="alternateBounds" />
          </mxGeometry>
        </mxCell>
        <mxCell id="Y3WRB6qTo1Abw-VJ-6aR-37" value="" style="shape=partialRectangle;collapsible=0;dropTarget=0;pointerEvents=0;points=[[0,0.5],[1,0.5]];portConstraint=eastwest;top=0;left=0;right=0;bottom=0;labelBackgroundColor=none;rounded=0;fillColor=none;" parent="rA6WR066txMyiisViT2W-76" vertex="1">
          <mxGeometry y="180" width="260" height="30" as="geometry" />
        </mxCell>
        <mxCell id="Y3WRB6qTo1Abw-VJ-6aR-38" value="" style="shape=partialRectangle;overflow=hidden;connectable=0;fillColor=none;top=0;left=0;bottom=0;right=0;labelBackgroundColor=none;rounded=0;" parent="Y3WRB6qTo1Abw-VJ-6aR-37" vertex="1">
          <mxGeometry width="30" height="30" as="geometry">
            <mxRectangle width="30" height="30" as="alternateBounds" />
          </mxGeometry>
        </mxCell>
        <mxCell id="Y3WRB6qTo1Abw-VJ-6aR-39" value="order_price double precision NOT NULL" style="shape=partialRectangle;overflow=hidden;connectable=0;fillColor=none;top=0;left=0;bottom=0;right=0;align=left;spacingLeft=6;labelBackgroundColor=none;rounded=0;" parent="Y3WRB6qTo1Abw-VJ-6aR-37" vertex="1">
          <mxGeometry x="30" width="230" height="30" as="geometry">
            <mxRectangle width="230" height="30" as="alternateBounds" />
          </mxGeometry>
        </mxCell>
        <mxCell id="Y3WRB6qTo1Abw-VJ-6aR-40" value="" style="shape=partialRectangle;collapsible=0;dropTarget=0;pointerEvents=0;points=[[0,0.5],[1,0.5]];portConstraint=eastwest;top=0;left=0;right=0;bottom=0;labelBackgroundColor=none;rounded=0;fillColor=none;" parent="rA6WR066txMyiisViT2W-76" vertex="1">
          <mxGeometry y="210" width="260" height="30" as="geometry" />
        </mxCell>
        <mxCell id="Y3WRB6qTo1Abw-VJ-6aR-41" value="" style="shape=partialRectangle;overflow=hidden;connectable=0;fillColor=none;top=0;left=0;bottom=0;right=0;labelBackgroundColor=none;rounded=0;" parent="Y3WRB6qTo1Abw-VJ-6aR-40" vertex="1">
          <mxGeometry width="30" height="30" as="geometry">
            <mxRectangle width="30" height="30" as="alternateBounds" />
          </mxGeometry>
        </mxCell>
        <mxCell id="Y3WRB6qTo1Abw-VJ-6aR-42" value="order_delivery boolean NOT NULL" style="shape=partialRectangle;overflow=hidden;connectable=0;fillColor=none;top=0;left=0;bottom=0;right=0;align=left;spacingLeft=6;labelBackgroundColor=none;rounded=0;" parent="Y3WRB6qTo1Abw-VJ-6aR-40" vertex="1">
          <mxGeometry x="30" width="230" height="30" as="geometry">
            <mxRectangle width="230" height="30" as="alternateBounds" />
          </mxGeometry>
        </mxCell>
        <mxCell id="seB3tbeGy-2bm3QOvi_t-47" value="" style="shape=partialRectangle;collapsible=0;dropTarget=0;pointerEvents=0;fillColor=#FF6666;points=[[0,0.5],[1,0.5]];portConstraint=eastwest;top=0;left=0;right=0;bottom=0;labelBackgroundColor=none;rounded=0;fontColor=#ffffff;strokeColor=#314354;" parent="rA6WR066txMyiisViT2W-76" vertex="1">
          <mxGeometry y="240" width="260" height="30" as="geometry" />
        </mxCell>
        <mxCell id="seB3tbeGy-2bm3QOvi_t-48" value="" style="shape=partialRectangle;overflow=hidden;connectable=0;fillColor=none;top=0;left=0;bottom=0;right=0;labelBackgroundColor=none;rounded=0;" parent="seB3tbeGy-2bm3QOvi_t-47" vertex="1">
          <mxGeometry width="30" height="30" as="geometry">
            <mxRectangle width="30" height="30" as="alternateBounds" />
          </mxGeometry>
        </mxCell>
        <mxCell id="seB3tbeGy-2bm3QOvi_t-49" value="employee_id UUID NOT NULL" style="shape=partialRectangle;overflow=hidden;connectable=0;fillColor=none;top=0;left=0;bottom=0;right=0;align=left;spacingLeft=6;labelBackgroundColor=none;rounded=0;" parent="seB3tbeGy-2bm3QOvi_t-47" vertex="1">
          <mxGeometry x="30" width="230" height="30" as="geometry">
            <mxRectangle width="230" height="30" as="alternateBounds" />
          </mxGeometry>
        </mxCell>
        <mxCell id="rA6WR066txMyiisViT2W-83" value="" style="shape=partialRectangle;collapsible=0;dropTarget=0;pointerEvents=0;fillColor=none;points=[[0,0.5],[1,0.5]];portConstraint=eastwest;top=0;left=0;right=0;bottom=0;labelBackgroundColor=none;rounded=0;fontColor=#ffffff;strokeColor=#B20000;" parent="rA6WR066txMyiisViT2W-76" vertex="1">
          <mxGeometry y="270" width="260" height="30" as="geometry" />
        </mxCell>
        <mxCell id="rA6WR066txMyiisViT2W-84" value="FK2" style="shape=partialRectangle;overflow=hidden;connectable=0;fillColor=none;top=0;left=0;bottom=0;right=0;labelBackgroundColor=none;rounded=0;" parent="rA6WR066txMyiisViT2W-83" vertex="1">
          <mxGeometry width="30" height="30" as="geometry">
            <mxRectangle width="30" height="30" as="alternateBounds" />
          </mxGeometry>
        </mxCell>
        <mxCell id="rA6WR066txMyiisViT2W-85" value="fk_seller_id UUID" style="shape=partialRectangle;overflow=hidden;connectable=0;fillColor=none;top=0;left=0;bottom=0;right=0;align=left;spacingLeft=6;labelBackgroundColor=none;rounded=0;" parent="rA6WR066txMyiisViT2W-83" vertex="1">
          <mxGeometry x="30" width="230" height="30" as="geometry">
            <mxRectangle width="230" height="30" as="alternateBounds" />
          </mxGeometry>
        </mxCell>
        <mxCell id="XowecS3ShDzNfdt04L-r-4" value="" style="shape=partialRectangle;collapsible=0;dropTarget=0;pointerEvents=0;fillColor=none;points=[[0,0.5],[1,0.5]];portConstraint=eastwest;top=0;left=0;right=0;bottom=0;labelBackgroundColor=none;rounded=0;fontColor=#ffffff;strokeColor=#B20000;" parent="rA6WR066txMyiisViT2W-76" vertex="1">
          <mxGeometry y="300" width="260" height="30" as="geometry" />
        </mxCell>
        <mxCell id="XowecS3ShDzNfdt04L-r-5" value="FK3" style="shape=partialRectangle;overflow=hidden;connectable=0;fillColor=none;top=0;left=0;bottom=0;right=0;labelBackgroundColor=none;rounded=0;" parent="XowecS3ShDzNfdt04L-r-4" vertex="1">
          <mxGeometry width="30" height="30" as="geometry">
            <mxRectangle width="30" height="30" as="alternateBounds" />
          </mxGeometry>
        </mxCell>
        <mxCell id="XowecS3ShDzNfdt04L-r-6" value="fk_courier_id UUID" style="shape=partialRectangle;overflow=hidden;connectable=0;fillColor=none;top=0;left=0;bottom=0;right=0;align=left;spacingLeft=6;labelBackgroundColor=none;rounded=0;" parent="XowecS3ShDzNfdt04L-r-4" vertex="1">
          <mxGeometry x="30" width="230" height="30" as="geometry">
            <mxRectangle width="230" height="30" as="alternateBounds" />
          </mxGeometry>
        </mxCell>
        <mxCell id="rA6WR066txMyiisViT2W-92" value="" style="edgeStyle=orthogonalEdgeStyle;endArrow=ERmany;startArrow=ERone;endFill=0;startFill=0;labelBackgroundColor=none;fontColor=default;entryX=0;entryY=0.5;entryDx=0;entryDy=0;rounded=1;curved=0;" parent="1" source="rA6WR066txMyiisViT2W-32" target="rA6WR066txMyiisViT2W-83" edge="1">
          <mxGeometry width="100" height="100" relative="1" as="geometry">
            <mxPoint x="600" y="300" as="sourcePoint" />
            <mxPoint x="430" y="820" as="targetPoint" />
            <Array as="points">
              <mxPoint x="440" y="245" />
              <mxPoint x="440" y="1135" />
            </Array>
          </mxGeometry>
        </mxCell>
        <mxCell id="rA6WR066txMyiisViT2W-94" value="" style="edgeStyle=orthogonalEdgeStyle;endArrow=ERone;startArrow=ERone;endFill=0;startFill=0;labelBackgroundColor=none;fontColor=default;entryX=1;entryY=0.5;entryDx=0;entryDy=0;rounded=1;curved=0;" parent="1" source="rA6WR066txMyiisViT2W-3" target="rA6WR066txMyiisViT2W-80" edge="1">
          <mxGeometry width="100" height="100" relative="1" as="geometry">
            <mxPoint x="420" y="160" as="sourcePoint" />
            <mxPoint x="840" y="580" as="targetPoint" />
            <Array as="points">
              <mxPoint x="800" y="245" />
              <mxPoint x="800" y="955" />
            </Array>
          </mxGeometry>
        </mxCell>
        <UserObject label="Product" tags="" id="rA6WR066txMyiisViT2W-96">
          <mxCell style="shape=table;startSize=30;container=1;collapsible=1;childLayout=tableLayout;fixedRows=1;rowLines=0;fontStyle=1;align=center;resizeLast=1;labelBackgroundColor=none;rounded=0;" parent="1" vertex="1">
            <mxGeometry x="930" y="815" width="280" height="220" as="geometry" />
          </mxCell>
        </UserObject>
        <mxCell id="rA6WR066txMyiisViT2W-97" value="" style="shape=partialRectangle;collapsible=0;dropTarget=0;pointerEvents=0;fillColor=none;points=[[0,0.5],[1,0.5]];portConstraint=eastwest;top=0;left=0;right=0;bottom=1;labelBackgroundColor=none;rounded=0;" parent="rA6WR066txMyiisViT2W-96" vertex="1">
          <mxGeometry y="30" width="280" height="30" as="geometry" />
        </mxCell>
        <mxCell id="rA6WR066txMyiisViT2W-98" value="PK" style="shape=partialRectangle;overflow=hidden;connectable=0;fillColor=none;top=0;left=0;bottom=0;right=0;fontStyle=1;labelBackgroundColor=none;rounded=0;" parent="rA6WR066txMyiisViT2W-97" vertex="1">
          <mxGeometry width="30" height="30" as="geometry">
            <mxRectangle width="30" height="30" as="alternateBounds" />
          </mxGeometry>
        </mxCell>
        <mxCell id="rA6WR066txMyiisViT2W-99" value="product_id SERIAL NOT NULL " style="shape=partialRectangle;overflow=hidden;connectable=0;fillColor=none;top=0;left=0;bottom=0;right=0;align=left;spacingLeft=6;fontStyle=1;labelBackgroundColor=none;rounded=0;" parent="rA6WR066txMyiisViT2W-97" vertex="1">
          <mxGeometry x="30" width="250" height="30" as="geometry">
            <mxRectangle width="250" height="30" as="alternateBounds" />
          </mxGeometry>
        </mxCell>
        <mxCell id="rA6WR066txMyiisViT2W-100" value="" style="shape=partialRectangle;collapsible=0;dropTarget=0;pointerEvents=0;fillColor=none;points=[[0,0.5],[1,0.5]];portConstraint=eastwest;top=0;left=0;right=0;bottom=0;labelBackgroundColor=none;rounded=0;" parent="rA6WR066txMyiisViT2W-96" vertex="1">
          <mxGeometry y="60" width="280" height="30" as="geometry" />
        </mxCell>
        <mxCell id="rA6WR066txMyiisViT2W-101" value="" style="shape=partialRectangle;overflow=hidden;connectable=0;fillColor=none;top=0;left=0;bottom=0;right=0;labelBackgroundColor=none;rounded=0;" parent="rA6WR066txMyiisViT2W-100" vertex="1">
          <mxGeometry width="30" height="30" as="geometry">
            <mxRectangle width="30" height="30" as="alternateBounds" />
          </mxGeometry>
        </mxCell>
        <mxCell id="rA6WR066txMyiisViT2W-102" value="product_name varchar(50) NOT NULL" style="shape=partialRectangle;overflow=hidden;connectable=0;fillColor=none;top=0;left=0;bottom=0;right=0;align=left;spacingLeft=6;labelBackgroundColor=none;rounded=0;" parent="rA6WR066txMyiisViT2W-100" vertex="1">
          <mxGeometry x="30" width="250" height="30" as="geometry">
            <mxRectangle width="250" height="30" as="alternateBounds" />
          </mxGeometry>
        </mxCell>
        <mxCell id="rA6WR066txMyiisViT2W-103" value="" style="shape=partialRectangle;collapsible=0;dropTarget=0;pointerEvents=0;fillColor=none;points=[[0,0.5],[1,0.5]];portConstraint=eastwest;top=0;left=0;right=0;bottom=0;labelBackgroundColor=none;rounded=0;" parent="rA6WR066txMyiisViT2W-96" vertex="1">
          <mxGeometry y="90" width="280" height="30" as="geometry" />
        </mxCell>
        <mxCell id="rA6WR066txMyiisViT2W-104" value="" style="shape=partialRectangle;overflow=hidden;connectable=0;fillColor=none;top=0;left=0;bottom=0;right=0;labelBackgroundColor=none;rounded=0;" parent="rA6WR066txMyiisViT2W-103" vertex="1">
          <mxGeometry width="30" height="30" as="geometry">
            <mxRectangle width="30" height="30" as="alternateBounds" />
          </mxGeometry>
        </mxCell>
        <mxCell id="rA6WR066txMyiisViT2W-105" value="product_description text" style="shape=partialRectangle;overflow=hidden;connectable=0;fillColor=none;top=0;left=0;bottom=0;right=0;align=left;spacingLeft=6;labelBackgroundColor=none;rounded=0;" parent="rA6WR066txMyiisViT2W-103" vertex="1">
          <mxGeometry x="30" width="250" height="30" as="geometry">
            <mxRectangle width="250" height="30" as="alternateBounds" />
          </mxGeometry>
        </mxCell>
        <mxCell id="rA6WR066txMyiisViT2W-112" value="" style="shape=partialRectangle;collapsible=0;dropTarget=0;pointerEvents=0;fillColor=none;points=[[0,0.5],[1,0.5]];portConstraint=eastwest;top=0;left=0;right=0;bottom=0;labelBackgroundColor=none;rounded=0;" parent="rA6WR066txMyiisViT2W-96" vertex="1">
          <mxGeometry y="120" width="280" height="30" as="geometry" />
        </mxCell>
        <mxCell id="rA6WR066txMyiisViT2W-113" value="" style="shape=partialRectangle;overflow=hidden;connectable=0;fillColor=none;top=0;left=0;bottom=0;right=0;labelBackgroundColor=none;rounded=0;" parent="rA6WR066txMyiisViT2W-112" vertex="1">
          <mxGeometry width="30" height="30" as="geometry">
            <mxRectangle width="30" height="30" as="alternateBounds" />
          </mxGeometry>
        </mxCell>
        <mxCell id="rA6WR066txMyiisViT2W-114" value="product_price double precision NOT NULL" style="shape=partialRectangle;overflow=hidden;connectable=0;fillColor=none;top=0;left=0;bottom=0;right=0;align=left;spacingLeft=6;labelBackgroundColor=none;rounded=0;" parent="rA6WR066txMyiisViT2W-112" vertex="1">
          <mxGeometry x="30" width="250" height="30" as="geometry">
            <mxRectangle width="250" height="30" as="alternateBounds" />
          </mxGeometry>
        </mxCell>
        <mxCell id="rA6WR066txMyiisViT2W-109" value="" style="shape=partialRectangle;collapsible=0;dropTarget=0;pointerEvents=0;fillColor=none;points=[[0,0.5],[1,0.5]];portConstraint=eastwest;top=0;left=0;right=0;bottom=0;labelBackgroundColor=none;rounded=0;" parent="rA6WR066txMyiisViT2W-96" vertex="1">
          <mxGeometry y="150" width="280" height="30" as="geometry" />
        </mxCell>
        <mxCell id="rA6WR066txMyiisViT2W-110" value="" style="shape=partialRectangle;overflow=hidden;connectable=0;fillColor=none;top=0;left=0;bottom=0;right=0;labelBackgroundColor=none;rounded=0;" parent="rA6WR066txMyiisViT2W-109" vertex="1">
          <mxGeometry width="30" height="30" as="geometry">
            <mxRectangle width="30" height="30" as="alternateBounds" />
          </mxGeometry>
        </mxCell>
        <mxCell id="rA6WR066txMyiisViT2W-111" value="product_inStock boolean NOT NULL" style="shape=partialRectangle;overflow=hidden;connectable=0;fillColor=none;top=0;left=0;bottom=0;right=0;align=left;spacingLeft=6;labelBackgroundColor=none;rounded=0;" parent="rA6WR066txMyiisViT2W-109" vertex="1">
          <mxGeometry x="30" width="250" height="30" as="geometry">
            <mxRectangle width="250" height="30" as="alternateBounds" />
          </mxGeometry>
        </mxCell>
        <mxCell id="rA6WR066txMyiisViT2W-115" value="" style="shape=partialRectangle;collapsible=0;dropTarget=0;pointerEvents=0;fillColor=none;points=[[0,0.5],[1,0.5]];portConstraint=eastwest;top=0;left=0;right=0;bottom=0;labelBackgroundColor=none;rounded=0;" parent="rA6WR066txMyiisViT2W-96" vertex="1">
          <mxGeometry y="180" width="280" height="30" as="geometry" />
        </mxCell>
        <mxCell id="rA6WR066txMyiisViT2W-116" value="FK" style="shape=partialRectangle;overflow=hidden;connectable=0;fillColor=none;top=0;left=0;bottom=0;right=0;labelBackgroundColor=none;rounded=0;" parent="rA6WR066txMyiisViT2W-115" vertex="1">
          <mxGeometry width="30" height="30" as="geometry">
            <mxRectangle width="30" height="30" as="alternateBounds" />
          </mxGeometry>
        </mxCell>
        <mxCell id="rA6WR066txMyiisViT2W-117" value="fk_product_category_id SERIAL NOT NULL" style="shape=partialRectangle;overflow=hidden;connectable=0;fillColor=none;top=0;left=0;bottom=0;right=0;align=left;spacingLeft=6;labelBackgroundColor=none;rounded=0;" parent="rA6WR066txMyiisViT2W-115" vertex="1">
          <mxGeometry x="30" width="250" height="30" as="geometry">
            <mxRectangle width="250" height="30" as="alternateBounds" />
          </mxGeometry>
        </mxCell>
        <mxCell id="rA6WR066txMyiisViT2W-122" style="edgeStyle=orthogonalEdgeStyle;rounded=1;orthogonalLoop=1;jettySize=auto;html=1;exitX=0;exitY=0.5;exitDx=0;exitDy=0;entryX=1;entryY=0.5;entryDx=0;entryDy=0;startArrow=ERmany;startFill=0;endArrow=ERone;endFill=1;curved=0;" parent="1" source="XowecS3ShDzNfdt04L-r-4" target="rA6WR066txMyiisViT2W-46" edge="1">
          <mxGeometry relative="1" as="geometry">
            <Array as="points">
              <mxPoint x="420" y="1165" />
              <mxPoint x="420" y="485" />
            </Array>
          </mxGeometry>
        </mxCell>
        <mxCell id="rA6WR066txMyiisViT2W-132" value="Role" style="shape=table;startSize=30;container=1;collapsible=1;childLayout=tableLayout;fixedRows=1;rowLines=0;fontStyle=1;align=center;resizeLast=1;labelBackgroundColor=none;rounded=0;" parent="1" vertex="1">
          <mxGeometry x="-760" y="1060" width="270" height="100" as="geometry" />
        </mxCell>
        <mxCell id="rA6WR066txMyiisViT2W-133" value="" style="shape=partialRectangle;collapsible=0;dropTarget=0;pointerEvents=0;fillColor=none;points=[[0,0.5],[1,0.5]];portConstraint=eastwest;top=0;left=0;right=0;bottom=1;labelBackgroundColor=none;rounded=0;" parent="rA6WR066txMyiisViT2W-132" vertex="1">
          <mxGeometry y="30" width="270" height="30" as="geometry" />
        </mxCell>
        <mxCell id="rA6WR066txMyiisViT2W-134" value="PK" style="shape=partialRectangle;overflow=hidden;connectable=0;fillColor=none;top=0;left=0;bottom=0;right=0;fontStyle=1;labelBackgroundColor=none;rounded=0;" parent="rA6WR066txMyiisViT2W-133" vertex="1">
          <mxGeometry width="30" height="30" as="geometry">
            <mxRectangle width="30" height="30" as="alternateBounds" />
          </mxGeometry>
        </mxCell>
        <mxCell id="rA6WR066txMyiisViT2W-135" value="role_id   SERIAL NOT NULL" style="shape=partialRectangle;overflow=hidden;connectable=0;fillColor=none;top=0;left=0;bottom=0;right=0;align=left;spacingLeft=6;fontStyle=0;labelBackgroundColor=none;rounded=0;" parent="rA6WR066txMyiisViT2W-133" vertex="1">
          <mxGeometry x="30" width="240" height="30" as="geometry">
            <mxRectangle width="240" height="30" as="alternateBounds" />
          </mxGeometry>
        </mxCell>
        <mxCell id="rA6WR066txMyiisViT2W-136" value="" style="shape=partialRectangle;collapsible=0;dropTarget=0;pointerEvents=0;fillColor=none;points=[[0,0.5],[1,0.5]];portConstraint=eastwest;top=0;left=0;right=0;bottom=0;labelBackgroundColor=none;rounded=0;" parent="rA6WR066txMyiisViT2W-132" vertex="1">
          <mxGeometry y="60" width="270" height="30" as="geometry" />
        </mxCell>
        <mxCell id="rA6WR066txMyiisViT2W-137" value="" style="shape=partialRectangle;overflow=hidden;connectable=0;fillColor=none;top=0;left=0;bottom=0;right=0;labelBackgroundColor=none;rounded=0;" parent="rA6WR066txMyiisViT2W-136" vertex="1">
          <mxGeometry width="30" height="30" as="geometry">
            <mxRectangle width="30" height="30" as="alternateBounds" />
          </mxGeometry>
        </mxCell>
        <mxCell id="rA6WR066txMyiisViT2W-138" value="role_name varchar(50) UNIQUE NOT NULL" style="shape=partialRectangle;overflow=hidden;connectable=0;fillColor=none;top=0;left=0;bottom=0;right=0;align=left;spacingLeft=6;labelBackgroundColor=none;fontStyle=0;rounded=0;" parent="rA6WR066txMyiisViT2W-136" vertex="1">
          <mxGeometry x="30" width="240" height="30" as="geometry">
            <mxRectangle width="240" height="30" as="alternateBounds" />
          </mxGeometry>
        </mxCell>
        <mxCell id="y0-ZDK3abk4FL_K51jzE-3" value="Order_details" style="shape=table;startSize=30;container=1;collapsible=1;childLayout=tableLayout;fixedRows=1;rowLines=0;fontStyle=1;align=center;resizeLast=1;labelBackgroundColor=none;rounded=0;" parent="1" vertex="1">
          <mxGeometry x="480" y="560" width="250" height="280" as="geometry" />
        </mxCell>
        <mxCell id="y0-ZDK3abk4FL_K51jzE-4" value="" style="shape=partialRectangle;collapsible=0;dropTarget=0;pointerEvents=0;fillColor=none;points=[[0,0.5],[1,0.5]];portConstraint=eastwest;top=0;left=0;right=0;bottom=1;labelBackgroundColor=none;rounded=0;" parent="y0-ZDK3abk4FL_K51jzE-3" vertex="1">
          <mxGeometry y="30" width="250" height="30" as="geometry" />
        </mxCell>
        <mxCell id="y0-ZDK3abk4FL_K51jzE-5" value="PK" style="shape=partialRectangle;overflow=hidden;connectable=0;fillColor=none;top=0;left=0;bottom=0;right=0;fontStyle=1;labelBackgroundColor=none;rounded=0;" parent="y0-ZDK3abk4FL_K51jzE-4" vertex="1">
          <mxGeometry width="30" height="30" as="geometry">
            <mxRectangle width="30" height="30" as="alternateBounds" />
          </mxGeometry>
        </mxCell>
        <mxCell id="y0-ZDK3abk4FL_K51jzE-6" value="order_details_id UUID NOT NULL " style="shape=partialRectangle;overflow=hidden;connectable=0;fillColor=none;top=0;left=0;bottom=0;right=0;align=left;spacingLeft=6;fontStyle=1;labelBackgroundColor=none;rounded=0;" parent="y0-ZDK3abk4FL_K51jzE-4" vertex="1">
          <mxGeometry x="30" width="220" height="30" as="geometry">
            <mxRectangle width="220" height="30" as="alternateBounds" />
          </mxGeometry>
        </mxCell>
        <mxCell id="y0-ZDK3abk4FL_K51jzE-16" value="" style="shape=partialRectangle;collapsible=0;dropTarget=0;pointerEvents=0;fillColor=#FF6666;points=[[0,0.5],[1,0.5]];portConstraint=eastwest;top=0;left=0;right=0;bottom=0;labelBackgroundColor=none;rounded=0;fontColor=#ffffff;strokeColor=#B20000;" parent="y0-ZDK3abk4FL_K51jzE-3" vertex="1">
          <mxGeometry y="60" width="250" height="30" as="geometry" />
        </mxCell>
        <mxCell id="y0-ZDK3abk4FL_K51jzE-17" value="" style="shape=partialRectangle;overflow=hidden;connectable=0;fillColor=none;top=0;left=0;bottom=0;right=0;labelBackgroundColor=none;rounded=0;" parent="y0-ZDK3abk4FL_K51jzE-16" vertex="1">
          <mxGeometry width="30" height="30" as="geometry">
            <mxRectangle width="30" height="30" as="alternateBounds" />
          </mxGeometry>
        </mxCell>
        <mxCell id="y0-ZDK3abk4FL_K51jzE-18" value="order_status varchar(50) NOT NULL" style="shape=partialRectangle;overflow=hidden;connectable=0;fillColor=none;top=0;left=0;bottom=0;right=0;align=left;spacingLeft=6;labelBackgroundColor=none;rounded=0;" parent="y0-ZDK3abk4FL_K51jzE-16" vertex="1">
          <mxGeometry x="30" width="220" height="30" as="geometry">
            <mxRectangle width="220" height="30" as="alternateBounds" />
          </mxGeometry>
        </mxCell>
        <mxCell id="9jZ189GhqvGMuHx-gGZv-4" value="" style="shape=partialRectangle;collapsible=0;dropTarget=0;pointerEvents=0;fillColor=#FF6666;points=[[0,0.5],[1,0.5]];portConstraint=eastwest;top=0;left=0;right=0;bottom=0;labelBackgroundColor=none;rounded=0;" parent="y0-ZDK3abk4FL_K51jzE-3" vertex="1">
          <mxGeometry y="90" width="250" height="30" as="geometry" />
        </mxCell>
        <mxCell id="9jZ189GhqvGMuHx-gGZv-5" value="" style="shape=partialRectangle;overflow=hidden;connectable=0;fillColor=none;top=0;left=0;bottom=0;right=0;labelBackgroundColor=none;rounded=0;" parent="9jZ189GhqvGMuHx-gGZv-4" vertex="1">
          <mxGeometry width="30" height="30" as="geometry">
            <mxRectangle width="30" height="30" as="alternateBounds" />
          </mxGeometry>
        </mxCell>
        <mxCell id="9jZ189GhqvGMuHx-gGZv-6" value="order_date date NOT NULL" style="shape=partialRectangle;overflow=hidden;connectable=0;fillColor=none;top=0;left=0;bottom=0;right=0;align=left;spacingLeft=6;labelBackgroundColor=none;rounded=0;" parent="9jZ189GhqvGMuHx-gGZv-4" vertex="1">
          <mxGeometry x="30" width="220" height="30" as="geometry">
            <mxRectangle width="220" height="30" as="alternateBounds" />
          </mxGeometry>
        </mxCell>
        <mxCell id="UpuMpoFQZ4oUvZwaEcUX-16" value="" style="shape=partialRectangle;collapsible=0;dropTarget=0;pointerEvents=0;fillColor=#808d7c;points=[[0,0.5],[1,0.5]];portConstraint=eastwest;top=0;left=0;right=0;bottom=0;labelBackgroundColor=none;rounded=0;fontColor=#ffffff;strokeColor=#3A5431;" parent="y0-ZDK3abk4FL_K51jzE-3" vertex="1">
          <mxGeometry y="120" width="250" height="30" as="geometry" />
        </mxCell>
        <mxCell id="UpuMpoFQZ4oUvZwaEcUX-17" value="FK1" style="shape=partialRectangle;overflow=hidden;connectable=0;fillColor=none;top=0;left=0;bottom=0;right=0;labelBackgroundColor=none;rounded=0;" parent="UpuMpoFQZ4oUvZwaEcUX-16" vertex="1">
          <mxGeometry width="30" height="30" as="geometry">
            <mxRectangle width="30" height="30" as="alternateBounds" />
          </mxGeometry>
        </mxCell>
        <mxCell id="UpuMpoFQZ4oUvZwaEcUX-18" value="fk_product_id int NOT NULL" style="shape=partialRectangle;overflow=hidden;connectable=0;fillColor=none;top=0;left=0;bottom=0;right=0;align=left;spacingLeft=6;labelBackgroundColor=none;rounded=0;" parent="UpuMpoFQZ4oUvZwaEcUX-16" vertex="1">
          <mxGeometry x="30" width="220" height="30" as="geometry">
            <mxRectangle width="220" height="30" as="alternateBounds" />
          </mxGeometry>
        </mxCell>
        <mxCell id="UpuMpoFQZ4oUvZwaEcUX-19" value="" style="shape=partialRectangle;collapsible=0;dropTarget=0;pointerEvents=0;fillColor=#808d7c;points=[[0,0.5],[1,0.5]];portConstraint=eastwest;top=0;left=0;right=0;bottom=0;labelBackgroundColor=none;rounded=0;fontColor=#ffffff;strokeColor=#3A5431;" parent="y0-ZDK3abk4FL_K51jzE-3" vertex="1">
          <mxGeometry y="150" width="250" height="30" as="geometry" />
        </mxCell>
        <mxCell id="UpuMpoFQZ4oUvZwaEcUX-20" value="" style="shape=partialRectangle;overflow=hidden;connectable=0;fillColor=none;top=0;left=0;bottom=0;right=0;labelBackgroundColor=none;rounded=0;" parent="UpuMpoFQZ4oUvZwaEcUX-19" vertex="1">
          <mxGeometry width="30" height="30" as="geometry">
            <mxRectangle width="30" height="30" as="alternateBounds" />
          </mxGeometry>
        </mxCell>
        <mxCell id="UpuMpoFQZ4oUvZwaEcUX-21" value="product_count int NOT NULL" style="shape=partialRectangle;overflow=hidden;connectable=0;fillColor=none;top=0;left=0;bottom=0;right=0;align=left;spacingLeft=6;labelBackgroundColor=none;rounded=0;" parent="UpuMpoFQZ4oUvZwaEcUX-19" vertex="1">
          <mxGeometry x="30" width="220" height="30" as="geometry">
            <mxRectangle width="220" height="30" as="alternateBounds" />
          </mxGeometry>
        </mxCell>
        <mxCell id="XowecS3ShDzNfdt04L-r-7" value="" style="shape=partialRectangle;collapsible=0;dropTarget=0;pointerEvents=0;points=[[0,0.5],[1,0.5]];portConstraint=eastwest;top=0;left=0;right=0;bottom=0;labelBackgroundColor=none;rounded=0;fillColor=none;" parent="y0-ZDK3abk4FL_K51jzE-3" vertex="1">
          <mxGeometry y="180" width="250" height="30" as="geometry" />
        </mxCell>
        <mxCell id="XowecS3ShDzNfdt04L-r-8" value="FK2" style="shape=partialRectangle;overflow=hidden;connectable=0;fillColor=none;top=0;left=0;bottom=0;right=0;labelBackgroundColor=none;rounded=0;" parent="XowecS3ShDzNfdt04L-r-7" vertex="1">
          <mxGeometry width="30" height="30" as="geometry">
            <mxRectangle width="30" height="30" as="alternateBounds" />
          </mxGeometry>
        </mxCell>
        <mxCell id="XowecS3ShDzNfdt04L-r-9" value="fk_order_id UUID NOT NULL" style="shape=partialRectangle;overflow=hidden;connectable=0;fillColor=none;top=0;left=0;bottom=0;right=0;align=left;spacingLeft=6;labelBackgroundColor=none;rounded=0;" parent="XowecS3ShDzNfdt04L-r-7" vertex="1">
          <mxGeometry x="30" width="220" height="30" as="geometry">
            <mxRectangle width="220" height="30" as="alternateBounds" />
          </mxGeometry>
        </mxCell>
        <mxCell id="Y3WRB6qTo1Abw-VJ-6aR-31" value="" style="shape=partialRectangle;collapsible=0;dropTarget=0;pointerEvents=0;fillColor=#FF6666;points=[[0,0.5],[1,0.5]];portConstraint=eastwest;top=0;left=0;right=0;bottom=0;labelBackgroundColor=none;rounded=0;fontColor=#ffffff;strokeColor=#3A5431;" parent="y0-ZDK3abk4FL_K51jzE-3" vertex="1">
          <mxGeometry y="210" width="250" height="30" as="geometry" />
        </mxCell>
        <mxCell id="Y3WRB6qTo1Abw-VJ-6aR-32" value="" style="shape=partialRectangle;overflow=hidden;connectable=0;fillColor=none;top=0;left=0;bottom=0;right=0;labelBackgroundColor=none;rounded=0;" parent="Y3WRB6qTo1Abw-VJ-6aR-31" vertex="1">
          <mxGeometry width="30" height="30" as="geometry">
            <mxRectangle width="30" height="30" as="alternateBounds" />
          </mxGeometry>
        </mxCell>
        <mxCell id="Y3WRB6qTo1Abw-VJ-6aR-33" value="customer_id UUID NOT NULL" style="shape=partialRectangle;overflow=hidden;connectable=0;fillColor=none;top=0;left=0;bottom=0;right=0;align=left;spacingLeft=6;labelBackgroundColor=none;rounded=0;" parent="Y3WRB6qTo1Abw-VJ-6aR-31" vertex="1">
          <mxGeometry x="30" width="220" height="30" as="geometry">
            <mxRectangle width="220" height="30" as="alternateBounds" />
          </mxGeometry>
        </mxCell>
        <mxCell id="zzIU1y1TvYAV49h6aCob-22" value="" style="shape=partialRectangle;collapsible=0;dropTarget=0;pointerEvents=0;points=[[0,0.5],[1,0.5]];portConstraint=eastwest;top=0;left=0;right=0;bottom=0;labelBackgroundColor=none;rounded=0;fillColor=none;" parent="y0-ZDK3abk4FL_K51jzE-3" vertex="1">
          <mxGeometry y="240" width="250" height="30" as="geometry" />
        </mxCell>
        <mxCell id="zzIU1y1TvYAV49h6aCob-23" value="" style="shape=partialRectangle;overflow=hidden;connectable=0;fillColor=none;top=0;left=0;bottom=0;right=0;labelBackgroundColor=none;rounded=0;" parent="zzIU1y1TvYAV49h6aCob-22" vertex="1">
          <mxGeometry width="30" height="30" as="geometry">
            <mxRectangle width="30" height="30" as="alternateBounds" />
          </mxGeometry>
        </mxCell>
        <mxCell id="zzIU1y1TvYAV49h6aCob-24" value="fk_product_property_id int NOT NULL" style="shape=partialRectangle;overflow=hidden;connectable=0;fillColor=none;top=0;left=0;bottom=0;right=0;align=left;spacingLeft=6;labelBackgroundColor=none;rounded=0;" parent="zzIU1y1TvYAV49h6aCob-22" vertex="1">
          <mxGeometry x="30" width="220" height="30" as="geometry">
            <mxRectangle width="220" height="30" as="alternateBounds" />
          </mxGeometry>
        </mxCell>
        <mxCell id="gGXZxWLlf8FpNy4DOuPM-1" value="корзины всех пользователй&lt;br&gt;" style="text;html=1;align=center;verticalAlign=middle;resizable=0;points=[];autosize=1;strokeColor=#432D57;fillColor=#76608a;fontColor=#ffffff;rounded=0;" parent="1" vertex="1">
          <mxGeometry x="970" y="160" width="180" height="30" as="geometry" />
        </mxCell>
        <mxCell id="gGXZxWLlf8FpNy4DOuPM-3" style="edgeStyle=orthogonalEdgeStyle;rounded=1;orthogonalLoop=1;jettySize=auto;html=1;exitX=1;exitY=0.5;exitDx=0;exitDy=0;entryX=1;entryY=0.5;entryDx=0;entryDy=0;curved=0;startArrow=ERone;startFill=0;endArrow=ERone;endFill=0;fillColor=#e51400;strokeColor=#B20000;" parent="1" source="rA6WR066txMyiisViT2W-89" target="y0-ZDK3abk4FL_K51jzE-4" edge="1">
          <mxGeometry relative="1" as="geometry">
            <Array as="points">
              <mxPoint x="780" y="925" />
              <mxPoint x="780" y="605" />
            </Array>
          </mxGeometry>
        </mxCell>
        <UserObject label="Product_category" tags="" id="gGXZxWLlf8FpNy4DOuPM-6">
          <mxCell style="shape=table;startSize=30;container=1;collapsible=1;childLayout=tableLayout;fixedRows=1;rowLines=0;fontStyle=1;align=center;resizeLast=1;html=1;rounded=0;" parent="1" vertex="1">
            <mxGeometry x="930" y="1100" width="330" height="90" as="geometry" />
          </mxCell>
        </UserObject>
        <mxCell id="gGXZxWLlf8FpNy4DOuPM-7" value="" style="shape=tableRow;horizontal=0;startSize=0;swimlaneHead=0;swimlaneBody=0;fillColor=none;collapsible=0;dropTarget=0;points=[[0,0.5],[1,0.5]];portConstraint=eastwest;top=0;left=0;right=0;bottom=1;rounded=0;" parent="gGXZxWLlf8FpNy4DOuPM-6" vertex="1">
          <mxGeometry y="30" width="330" height="30" as="geometry" />
        </mxCell>
        <mxCell id="gGXZxWLlf8FpNy4DOuPM-8" value="PK" style="shape=partialRectangle;connectable=0;fillColor=none;top=0;left=0;bottom=0;right=0;fontStyle=1;overflow=hidden;whiteSpace=wrap;html=1;rounded=0;" parent="gGXZxWLlf8FpNy4DOuPM-7" vertex="1">
          <mxGeometry width="30" height="30" as="geometry">
            <mxRectangle width="30" height="30" as="alternateBounds" />
          </mxGeometry>
        </mxCell>
        <mxCell id="gGXZxWLlf8FpNy4DOuPM-9" value="product_category_id SERIAL NOT NULL" style="shape=partialRectangle;connectable=0;fillColor=none;top=0;left=0;bottom=0;right=0;align=left;spacingLeft=6;fontStyle=5;overflow=hidden;whiteSpace=wrap;html=1;rounded=0;" parent="gGXZxWLlf8FpNy4DOuPM-7" vertex="1">
          <mxGeometry x="30" width="300" height="30" as="geometry">
            <mxRectangle width="300" height="30" as="alternateBounds" />
          </mxGeometry>
        </mxCell>
        <mxCell id="gGXZxWLlf8FpNy4DOuPM-10" value="" style="shape=tableRow;horizontal=0;startSize=0;swimlaneHead=0;swimlaneBody=0;fillColor=none;collapsible=0;dropTarget=0;points=[[0,0.5],[1,0.5]];portConstraint=eastwest;top=0;left=0;right=0;bottom=0;rounded=0;" parent="gGXZxWLlf8FpNy4DOuPM-6" vertex="1">
          <mxGeometry y="60" width="330" height="30" as="geometry" />
        </mxCell>
        <mxCell id="gGXZxWLlf8FpNy4DOuPM-11" value="" style="shape=partialRectangle;connectable=0;fillColor=none;top=0;left=0;bottom=0;right=0;editable=1;overflow=hidden;whiteSpace=wrap;html=1;rounded=0;" parent="gGXZxWLlf8FpNy4DOuPM-10" vertex="1">
          <mxGeometry width="30" height="30" as="geometry">
            <mxRectangle width="30" height="30" as="alternateBounds" />
          </mxGeometry>
        </mxCell>
        <mxCell id="gGXZxWLlf8FpNy4DOuPM-12" value="product_category_name&amp;nbsp;varchar(50)&amp;nbsp;NOT NULL" style="shape=partialRectangle;connectable=0;fillColor=none;top=0;left=0;bottom=0;right=0;align=left;spacingLeft=6;overflow=hidden;whiteSpace=wrap;html=1;rounded=0;" parent="gGXZxWLlf8FpNy4DOuPM-10" vertex="1">
          <mxGeometry x="30" width="300" height="30" as="geometry">
            <mxRectangle width="300" height="30" as="alternateBounds" />
          </mxGeometry>
        </mxCell>
        <mxCell id="gGXZxWLlf8FpNy4DOuPM-20" value="Product_size" style="shape=table;startSize=30;container=1;collapsible=1;childLayout=tableLayout;fixedRows=1;rowLines=0;fontStyle=1;align=center;resizeLast=1;html=1;rounded=0;fillColor=default;strokeColor=none;" parent="1" vertex="1">
          <mxGeometry x="1325" y="1100" width="330" height="90" as="geometry" />
        </mxCell>
        <mxCell id="gGXZxWLlf8FpNy4DOuPM-21" value="" style="shape=tableRow;horizontal=0;startSize=0;swimlaneHead=0;swimlaneBody=0;fillColor=default;collapsible=0;dropTarget=0;points=[[0,0.5],[1,0.5]];portConstraint=eastwest;top=0;left=0;right=0;bottom=1;rounded=0;strokeColor=inherit;" parent="gGXZxWLlf8FpNy4DOuPM-20" vertex="1">
          <mxGeometry y="30" width="330" height="30" as="geometry" />
        </mxCell>
        <mxCell id="gGXZxWLlf8FpNy4DOuPM-22" value="PK" style="shape=partialRectangle;connectable=0;fillColor=default;top=0;left=0;bottom=0;right=0;fontStyle=1;overflow=hidden;whiteSpace=wrap;html=1;rounded=0;strokeColor=inherit;" parent="gGXZxWLlf8FpNy4DOuPM-21" vertex="1">
          <mxGeometry width="30" height="30" as="geometry">
            <mxRectangle width="30" height="30" as="alternateBounds" />
          </mxGeometry>
        </mxCell>
        <mxCell id="gGXZxWLlf8FpNy4DOuPM-23" value="product_size_id SERIAL NOT NULL" style="shape=partialRectangle;connectable=0;fillColor=default;top=0;left=0;bottom=0;right=0;align=left;spacingLeft=6;fontStyle=5;overflow=hidden;whiteSpace=wrap;html=1;rounded=0;strokeColor=inherit;" parent="gGXZxWLlf8FpNy4DOuPM-21" vertex="1">
          <mxGeometry x="30" width="300" height="30" as="geometry">
            <mxRectangle width="300" height="30" as="alternateBounds" />
          </mxGeometry>
        </mxCell>
        <mxCell id="gGXZxWLlf8FpNy4DOuPM-24" value="" style="shape=tableRow;horizontal=0;startSize=0;swimlaneHead=0;swimlaneBody=0;fillColor=default;collapsible=0;dropTarget=0;points=[[0,0.5],[1,0.5]];portConstraint=eastwest;top=0;left=0;right=0;bottom=0;rounded=0;strokeColor=inherit;" parent="gGXZxWLlf8FpNy4DOuPM-20" vertex="1">
          <mxGeometry y="60" width="330" height="30" as="geometry" />
        </mxCell>
        <mxCell id="gGXZxWLlf8FpNy4DOuPM-25" value="" style="shape=partialRectangle;connectable=0;fillColor=default;top=0;left=0;bottom=0;right=0;editable=1;overflow=hidden;whiteSpace=wrap;html=1;rounded=0;strokeColor=inherit;" parent="gGXZxWLlf8FpNy4DOuPM-24" vertex="1">
          <mxGeometry width="30" height="30" as="geometry">
            <mxRectangle width="30" height="30" as="alternateBounds" />
          </mxGeometry>
        </mxCell>
        <mxCell id="gGXZxWLlf8FpNy4DOuPM-26" value="product_size_name&amp;nbsp;varchar(50)&amp;nbsp;NOT NULL" style="shape=partialRectangle;connectable=0;fillColor=default;top=0;left=0;bottom=0;right=0;align=left;spacingLeft=6;overflow=hidden;whiteSpace=wrap;html=1;rounded=0;strokeColor=inherit;" parent="gGXZxWLlf8FpNy4DOuPM-24" vertex="1">
          <mxGeometry x="30" width="300" height="30" as="geometry">
            <mxRectangle width="300" height="30" as="alternateBounds" />
          </mxGeometry>
        </mxCell>
        <mxCell id="jvSVDEeEMjb6PyBopY8N-1" value="нужно проектировать бд основываясь на офлайн и онлайн работу&lt;br&gt;&amp;nbsp;или только для работы с сайта &lt;br&gt;и не предполагать работу например в самой пиццерии??????????" style="text;align=center;verticalAlign=middle;resizable=0;points=[];autosize=1;strokeColor=#314354;fillColor=#647687;horizontal=1;spacingTop=0;html=1;fontSize=15;fontColor=#ffffff;rounded=0;" parent="1" vertex="1">
          <mxGeometry x="-240" width="490" height="70" as="geometry" />
        </mxCell>
        <mxCell id="jvSVDEeEMjb6PyBopY8N-4" value="или как то можно логически разделить&lt;br&gt;работу на месте и&lt;br&gt;работу на сайте&lt;br&gt;&lt;br&gt;чтобы понимать указывается продавец и т.д?" style="text;html=1;align=center;verticalAlign=middle;resizable=0;points=[];autosize=1;strokeColor=#314354;fillColor=#647687;fontColor=#ffffff;rounded=0;" parent="1" vertex="1">
          <mxGeometry x="320" y="20" width="280" height="90" as="geometry" />
        </mxCell>
        <mxCell id="9jZ189GhqvGMuHx-gGZv-13" value="email млжет быть NULL если клиент не с сайте" style="text;html=1;align=center;verticalAlign=middle;resizable=0;points=[];autosize=1;strokeColor=#314354;fillColor=#647687;fontColor=#ffffff;rounded=0;" parent="1" vertex="1">
          <mxGeometry x="475" y="370" width="290" height="30" as="geometry" />
        </mxCell>
        <mxCell id="9jZ189GhqvGMuHx-gGZv-15" value="допустимть что manager может быть только один в одно рабочее время&amp;nbsp;&lt;br&gt;и добавить поле с активным состоянием?" style="text;html=1;align=center;verticalAlign=middle;resizable=0;points=[];autosize=1;strokeColor=#432D57;fillColor=#76608a;fontColor=#ffffff;rounded=0;" parent="1" vertex="1">
          <mxGeometry x="-389" y="340" width="430" height="40" as="geometry" />
        </mxCell>
        <mxCell id="9jZ189GhqvGMuHx-gGZv-16" value="fk_customer_id UUID NOT NULL&lt;br&gt;куда&lt;br&gt;в Order&amp;nbsp;&lt;br&gt;или order_details" style="text;html=1;align=center;verticalAlign=middle;resizable=0;points=[];autosize=1;strokeColor=#314354;fillColor=#647687;fontColor=#ffffff;rounded=0;" parent="1" vertex="1">
          <mxGeometry x="80" y="940" width="200" height="70" as="geometry" />
        </mxCell>
        <mxCell id="seB3tbeGy-2bm3QOvi_t-2" value="у рахных продуктов есть свои опредленные поля,&lt;br&gt;&amp;nbsp;например где то есть разиеры или миллилитры," style="text;html=1;align=center;verticalAlign=middle;resizable=0;points=[];autosize=1;strokeColor=#314354;fillColor=#647687;fontColor=#ffffff;rounded=0;" parent="1" vertex="1">
          <mxGeometry x="1340" y="930" width="300" height="40" as="geometry" />
        </mxCell>
        <mxCell id="seB3tbeGy-2bm3QOvi_t-3" value="может в Product будет поле с типом / категорией&lt;br&gt;&amp;nbsp;и в каждой категории свои поля" style="text;html=1;align=center;verticalAlign=middle;resizable=0;points=[];autosize=1;strokeColor=#314354;fillColor=#647687;fontColor=#ffffff;rounded=0;" parent="1" vertex="1">
          <mxGeometry x="1340" y="995" width="290" height="40" as="geometry" />
        </mxCell>
        <mxCell id="seB3tbeGy-2bm3QOvi_t-8" value="" style="endArrow=classic;html=1;rounded=0;" parent="1" edge="1">
          <mxGeometry width="50" height="50" relative="1" as="geometry">
            <mxPoint x="920" y="360" as="sourcePoint" />
            <mxPoint x="750" y="580" as="targetPoint" />
          </mxGeometry>
        </mxCell>
        <mxCell id="seB3tbeGy-2bm3QOvi_t-9" value="перенос значений при формировании заказа&lt;br&gt;из basket&lt;br&gt;в order_details" style="text;html=1;align=center;verticalAlign=middle;resizable=0;points=[];autosize=1;strokeColor=#3A5431;fillColor=#6d8764;rounded=0;fontColor=#ffffff;" parent="1" vertex="1">
          <mxGeometry x="837.5" y="380" width="270" height="60" as="geometry" />
        </mxCell>
        <mxCell id="seB3tbeGy-2bm3QOvi_t-10" value="именно перенос" style="text;html=1;align=center;verticalAlign=middle;resizable=0;points=[];autosize=1;strokeColor=#3A5431;fillColor=#6d8764;rounded=0;fontColor=#ffffff;" parent="1" vertex="1">
          <mxGeometry x="810" y="450" width="110" height="30" as="geometry" />
        </mxCell>
        <mxCell id="seB3tbeGy-2bm3QOvi_t-12" value="частично дублирует basket" style="text;html=1;align=center;verticalAlign=middle;resizable=0;points=[];autosize=1;strokeColor=#3A5431;fillColor=#6d8764;fontColor=#ffffff;rounded=0;" parent="1" vertex="1">
          <mxGeometry x="475" y="520" width="170" height="30" as="geometry" />
        </mxCell>
        <mxCell id="seB3tbeGy-2bm3QOvi_t-29" value="Product_property" style="shape=table;startSize=30;container=1;collapsible=1;childLayout=tableLayout;fixedRows=1;rowLines=0;fontStyle=1;align=center;resizeLast=1;html=1;rounded=0;" parent="1" vertex="1">
          <mxGeometry x="930" y="460" width="285" height="180" as="geometry" />
        </mxCell>
        <mxCell id="seB3tbeGy-2bm3QOvi_t-30" value="" style="shape=tableRow;horizontal=0;startSize=0;swimlaneHead=0;swimlaneBody=0;fillColor=none;collapsible=0;dropTarget=0;points=[[0,0.5],[1,0.5]];portConstraint=eastwest;top=0;left=0;right=0;bottom=1;align=center;rounded=0;" parent="seB3tbeGy-2bm3QOvi_t-29" vertex="1">
          <mxGeometry y="30" width="285" height="30" as="geometry" />
        </mxCell>
        <mxCell id="seB3tbeGy-2bm3QOvi_t-31" value="PK" style="shape=partialRectangle;connectable=0;fillColor=none;top=0;left=0;bottom=0;right=0;fontStyle=1;overflow=hidden;whiteSpace=wrap;html=1;rounded=0;" parent="seB3tbeGy-2bm3QOvi_t-30" vertex="1">
          <mxGeometry width="30" height="30" as="geometry">
            <mxRectangle width="30" height="30" as="alternateBounds" />
          </mxGeometry>
        </mxCell>
        <mxCell id="seB3tbeGy-2bm3QOvi_t-32" value="product_property_id&amp;nbsp;SERIAL&amp;nbsp;NOT NULL" style="shape=partialRectangle;connectable=0;fillColor=none;top=0;left=0;bottom=0;right=0;align=left;spacingLeft=6;fontStyle=5;overflow=hidden;whiteSpace=wrap;html=1;rounded=0;" parent="seB3tbeGy-2bm3QOvi_t-30" vertex="1">
          <mxGeometry x="30" width="255" height="30" as="geometry">
            <mxRectangle width="255" height="30" as="alternateBounds" />
          </mxGeometry>
        </mxCell>
        <mxCell id="zzIU1y1TvYAV49h6aCob-2" value="" style="shape=tableRow;horizontal=0;startSize=0;swimlaneHead=0;swimlaneBody=0;fillColor=none;collapsible=0;dropTarget=0;points=[[0,0.5],[1,0.5]];portConstraint=eastwest;top=0;left=0;right=0;bottom=0;rounded=0;fontColor=#ffffff;strokeColor=#B20000;" parent="seB3tbeGy-2bm3QOvi_t-29" vertex="1">
          <mxGeometry y="60" width="285" height="30" as="geometry" />
        </mxCell>
        <mxCell id="zzIU1y1TvYAV49h6aCob-3" value="FK1" style="shape=partialRectangle;connectable=0;fillColor=none;top=0;left=0;bottom=0;right=0;editable=1;overflow=hidden;whiteSpace=wrap;html=1;rounded=0;" parent="zzIU1y1TvYAV49h6aCob-2" vertex="1">
          <mxGeometry width="30" height="30" as="geometry">
            <mxRectangle width="30" height="30" as="alternateBounds" />
          </mxGeometry>
        </mxCell>
        <mxCell id="zzIU1y1TvYAV49h6aCob-4" value="fk_basket_id int NOT NULL" style="shape=partialRectangle;connectable=0;fillColor=none;top=0;left=0;bottom=0;right=0;align=left;spacingLeft=6;overflow=hidden;whiteSpace=wrap;html=1;rounded=0;" parent="zzIU1y1TvYAV49h6aCob-2" vertex="1">
          <mxGeometry x="30" width="255" height="30" as="geometry">
            <mxRectangle width="255" height="30" as="alternateBounds" />
          </mxGeometry>
        </mxCell>
        <mxCell id="y7KOnIZi-0CqH0vlRaBg-1" value="" style="shape=tableRow;horizontal=0;startSize=0;swimlaneHead=0;swimlaneBody=0;fillColor=#a20025;collapsible=0;dropTarget=0;points=[[0,0.5],[1,0.5]];portConstraint=eastwest;top=0;left=0;right=0;bottom=0;rounded=0;fontColor=#ffffff;strokeColor=#6F0000;" parent="seB3tbeGy-2bm3QOvi_t-29" vertex="1">
          <mxGeometry y="90" width="285" height="30" as="geometry" />
        </mxCell>
        <mxCell id="y7KOnIZi-0CqH0vlRaBg-2" value="FK2" style="shape=partialRectangle;connectable=0;fillColor=none;top=0;left=0;bottom=0;right=0;editable=1;overflow=hidden;whiteSpace=wrap;html=1;rounded=0;" parent="y7KOnIZi-0CqH0vlRaBg-1" vertex="1">
          <mxGeometry width="30" height="30" as="geometry">
            <mxRectangle width="30" height="30" as="alternateBounds" />
          </mxGeometry>
        </mxCell>
        <mxCell id="y7KOnIZi-0CqH0vlRaBg-3" value="fk_order_details_id int NOT NULL" style="shape=partialRectangle;connectable=0;fillColor=none;top=0;left=0;bottom=0;right=0;align=left;spacingLeft=6;overflow=hidden;whiteSpace=wrap;html=1;rounded=0;" parent="y7KOnIZi-0CqH0vlRaBg-1" vertex="1">
          <mxGeometry x="30" width="255" height="30" as="geometry">
            <mxRectangle width="255" height="30" as="alternateBounds" />
          </mxGeometry>
        </mxCell>
        <mxCell id="zzIU1y1TvYAV49h6aCob-8" value="" style="shape=tableRow;horizontal=0;startSize=0;swimlaneHead=0;swimlaneBody=0;fillColor=none;collapsible=0;dropTarget=0;points=[[0,0.5],[1,0.5]];portConstraint=eastwest;top=0;left=0;right=0;bottom=0;rounded=0;" parent="seB3tbeGy-2bm3QOvi_t-29" vertex="1">
          <mxGeometry y="120" width="285" height="30" as="geometry" />
        </mxCell>
        <mxCell id="zzIU1y1TvYAV49h6aCob-9" value="" style="shape=partialRectangle;connectable=0;fillColor=none;top=0;left=0;bottom=0;right=0;editable=1;overflow=hidden;whiteSpace=wrap;html=1;rounded=0;" parent="zzIU1y1TvYAV49h6aCob-8" vertex="1">
          <mxGeometry width="30" height="30" as="geometry">
            <mxRectangle width="30" height="30" as="alternateBounds" />
          </mxGeometry>
        </mxCell>
        <mxCell id="zzIU1y1TvYAV49h6aCob-10" value="product_property_name varchar NOT NULL" style="shape=partialRectangle;connectable=0;fillColor=none;top=0;left=0;bottom=0;right=0;align=left;spacingLeft=6;overflow=hidden;whiteSpace=wrap;html=1;rounded=0;" parent="zzIU1y1TvYAV49h6aCob-8" vertex="1">
          <mxGeometry x="30" width="255" height="30" as="geometry">
            <mxRectangle width="255" height="30" as="alternateBounds" />
          </mxGeometry>
        </mxCell>
        <mxCell id="UpuMpoFQZ4oUvZwaEcUX-25" value="" style="shape=tableRow;horizontal=0;startSize=0;swimlaneHead=0;swimlaneBody=0;fillColor=none;collapsible=0;dropTarget=0;points=[[0,0.5],[1,0.5]];portConstraint=eastwest;top=0;left=0;right=0;bottom=0;rounded=0;" parent="seB3tbeGy-2bm3QOvi_t-29" vertex="1">
          <mxGeometry y="150" width="285" height="30" as="geometry" />
        </mxCell>
        <mxCell id="UpuMpoFQZ4oUvZwaEcUX-26" value="" style="shape=partialRectangle;connectable=0;fillColor=none;top=0;left=0;bottom=0;right=0;editable=1;overflow=hidden;whiteSpace=wrap;html=1;rounded=0;" parent="UpuMpoFQZ4oUvZwaEcUX-25" vertex="1">
          <mxGeometry width="30" height="30" as="geometry">
            <mxRectangle width="30" height="30" as="alternateBounds" />
          </mxGeometry>
        </mxCell>
        <mxCell id="UpuMpoFQZ4oUvZwaEcUX-27" value="product_property_value varchar NOT NULL" style="shape=partialRectangle;connectable=0;fillColor=none;top=0;left=0;bottom=0;right=0;align=left;spacingLeft=6;overflow=hidden;whiteSpace=wrap;html=1;rounded=0;" parent="UpuMpoFQZ4oUvZwaEcUX-25" vertex="1">
          <mxGeometry x="30" width="255" height="30" as="geometry">
            <mxRectangle width="255" height="30" as="alternateBounds" />
          </mxGeometry>
        </mxCell>
        <mxCell id="seB3tbeGy-2bm3QOvi_t-43" value="" style="shape=partialRectangle;collapsible=0;dropTarget=0;pointerEvents=0;fillColor=#76608a;points=[[0,0.5],[1,0.5]];portConstraint=eastwest;top=0;left=0;right=0;bottom=0;labelBackgroundColor=none;rounded=0;fontColor=#ffffff;strokeColor=#432D57;" parent="1" vertex="1">
          <mxGeometry x="1530" y="1210" width="280" height="30" as="geometry" />
        </mxCell>
        <mxCell id="seB3tbeGy-2bm3QOvi_t-44" value="" style="shape=partialRectangle;overflow=hidden;connectable=0;fillColor=none;top=0;left=0;bottom=0;right=0;labelBackgroundColor=none;rounded=0;" parent="seB3tbeGy-2bm3QOvi_t-43" vertex="1">
          <mxGeometry width="30" height="30" as="geometry">
            <mxRectangle width="30" height="30" as="alternateBounds" />
          </mxGeometry>
        </mxCell>
        <mxCell id="seB3tbeGy-2bm3QOvi_t-45" value="product_weight integer NOT NULL" style="shape=partialRectangle;overflow=hidden;connectable=0;fillColor=none;top=0;left=0;bottom=0;right=0;align=left;spacingLeft=6;labelBackgroundColor=none;rounded=0;" parent="seB3tbeGy-2bm3QOvi_t-43" vertex="1">
          <mxGeometry x="30" width="250" height="30" as="geometry">
            <mxRectangle width="250" height="30" as="alternateBounds" />
          </mxGeometry>
        </mxCell>
        <mxCell id="seB3tbeGy-2bm3QOvi_t-46" value="&lt;ul&gt;&lt;li style=&quot;text-align: left;&quot;&gt;&lt;span style=&quot;background-color: initial;&quot;&gt;размер&lt;/span&gt;&lt;br&gt;&lt;/li&gt;&lt;li style=&quot;text-align: left;&quot;&gt;&lt;span style=&quot;background-color: initial;&quot;&gt;диаметр&lt;/span&gt;&lt;/li&gt;&lt;li style=&quot;text-align: left;&quot;&gt;&lt;span style=&quot;background-color: initial;&quot;&gt;вид борта&lt;/span&gt;&lt;br&gt;&lt;/li&gt;&lt;li style=&quot;text-align: left;&quot;&gt;вид теста&lt;/li&gt;&lt;li style=&quot;text-align: left;&quot;&gt;обьем&lt;/li&gt;&lt;/ul&gt;" style="text;html=1;align=center;verticalAlign=middle;resizable=0;points=[];autosize=1;strokeColor=#432D57;fillColor=#76608a;fontColor=#ffffff;" parent="1" vertex="1">
          <mxGeometry x="1107.5" y="1295" width="120" height="110" as="geometry" />
        </mxCell>
        <mxCell id="seB3tbeGy-2bm3QOvi_t-50" value="employee_id ставится когда курьер или продавец&lt;br&gt;забирает заказ&lt;br&gt;&lt;br&gt;а каждый из них получает заказ в зависимости &lt;br&gt;от наличия адреса&amp;nbsp;&lt;br&gt;покупателя" style="text;html=1;align=center;verticalAlign=middle;resizable=0;points=[];autosize=1;strokeColor=#432D57;fillColor=#76608a;fontColor=#ffffff;" parent="1" vertex="1">
          <mxGeometry x="455" y="1195" width="300" height="100" as="geometry" />
        </mxCell>
        <mxCell id="UpuMpoFQZ4oUvZwaEcUX-23" style="edgeStyle=orthogonalEdgeStyle;rounded=1;orthogonalLoop=1;jettySize=auto;html=1;exitX=1;exitY=0.5;exitDx=0;exitDy=0;entryX=0;entryY=0.5;entryDx=0;entryDy=0;curved=0;endArrow=ERmany;endFill=0;startArrow=ERone;startFill=0;" parent="1" source="UpuMpoFQZ4oUvZwaEcUX-16" target="rA6WR066txMyiisViT2W-97" edge="1">
          <mxGeometry relative="1" as="geometry">
            <Array as="points">
              <mxPoint x="880" y="695" />
              <mxPoint x="880" y="860" />
            </Array>
          </mxGeometry>
        </mxCell>
        <mxCell id="UpuMpoFQZ4oUvZwaEcUX-24" value="будет varchar или какой то универсальный тип" style="text;html=1;align=center;verticalAlign=middle;resizable=0;points=[];autosize=1;strokeColor=#432D57;fillColor=#76608a;fontColor=#ffffff;" parent="1" vertex="1">
          <mxGeometry x="947.5" y="1260" width="280" height="30" as="geometry" />
        </mxCell>
        <mxCell id="UpuMpoFQZ4oUvZwaEcUX-28" value="под каким user мы подключаемся в момента Login-а &lt;br style=&quot;font-size: 19px;&quot;&gt;чтбы проверить email и password" style="text;html=1;align=center;verticalAlign=middle;resizable=0;points=[];autosize=1;strokeColor=#B20000;fillColor=#e51400;fontColor=#ffffff;fontSize=19;" parent="1" vertex="1">
          <mxGeometry x="-260" y="-120" width="490" height="60" as="geometry" />
        </mxCell>
        <mxCell id="Y3WRB6qTo1Abw-VJ-6aR-1" value="может перенести статус и время заказа&lt;br&gt;из&amp;nbsp;Order_details&lt;br&gt;в&amp;nbsp;Order&lt;br&gt;???" style="text;html=1;align=center;verticalAlign=middle;resizable=0;points=[];autosize=1;strokeColor=#314354;fillColor=#647687;fontColor=#ffffff;" parent="1" vertex="1">
          <mxGeometry x="60" y="788" width="250" height="70" as="geometry" />
        </mxCell>
        <mxCell id="Y3WRB6qTo1Abw-VJ-6aR-2" value="" style="edgeStyle=none;orthogonalLoop=1;jettySize=auto;html=1;rounded=0;entryX=0;entryY=0.5;entryDx=0;entryDy=0;exitX=1.007;exitY=0.347;exitDx=0;exitDy=0;exitPerimeter=0;" parent="1" source="Y3WRB6qTo1Abw-VJ-6aR-1" target="y0-ZDK3abk4FL_K51jzE-16" edge="1">
          <mxGeometry width="100" relative="1" as="geometry">
            <mxPoint x="220" y="810" as="sourcePoint" />
            <mxPoint x="320" y="810" as="targetPoint" />
            <Array as="points" />
          </mxGeometry>
        </mxCell>
        <mxCell id="Y3WRB6qTo1Abw-VJ-6aR-3" value="" style="edgeStyle=none;orthogonalLoop=1;jettySize=auto;html=1;rounded=0;entryX=0;entryY=0.5;entryDx=0;entryDy=0;exitX=1.001;exitY=0.408;exitDx=0;exitDy=0;exitPerimeter=0;" parent="1" source="Y3WRB6qTo1Abw-VJ-6aR-1" target="Y3WRB6qTo1Abw-VJ-6aR-20" edge="1">
          <mxGeometry width="100" relative="1" as="geometry">
            <mxPoint x="210" y="830" as="sourcePoint" />
            <mxPoint x="350" y="850" as="targetPoint" />
            <Array as="points" />
          </mxGeometry>
        </mxCell>
        <mxCell id="Y3WRB6qTo1Abw-VJ-6aR-26" value="" style="edgeStyle=none;orthogonalLoop=1;jettySize=auto;html=1;rounded=0;entryX=0;entryY=0.5;entryDx=0;entryDy=0;exitX=1.012;exitY=0.407;exitDx=0;exitDy=0;exitPerimeter=0;" parent="1" source="Y3WRB6qTo1Abw-VJ-6aR-1" target="9jZ189GhqvGMuHx-gGZv-4" edge="1">
          <mxGeometry width="100" relative="1" as="geometry">
            <mxPoint x="322" y="822" as="sourcePoint" />
            <mxPoint x="490" y="695" as="targetPoint" />
            <Array as="points" />
          </mxGeometry>
        </mxCell>
        <mxCell id="Y3WRB6qTo1Abw-VJ-6aR-27" value="" style="edgeStyle=none;orthogonalLoop=1;jettySize=auto;html=1;rounded=0;exitX=0.993;exitY=0.467;exitDx=0;exitDy=0;exitPerimeter=0;entryX=0;entryY=0.5;entryDx=0;entryDy=0;" parent="1" source="Y3WRB6qTo1Abw-VJ-6aR-1" target="Y3WRB6qTo1Abw-VJ-6aR-28" edge="1">
          <mxGeometry width="100" relative="1" as="geometry">
            <mxPoint x="320" y="827" as="sourcePoint" />
            <mxPoint x="450" y="990" as="targetPoint" />
            <Array as="points" />
          </mxGeometry>
        </mxCell>
        <mxCell id="XowecS3ShDzNfdt04L-r-1" value="Возможно добавить fk_order_id&lt;br&gt;для order что бы&lt;br&gt;курьер мог его брать" style="text;html=1;align=center;verticalAlign=middle;resizable=0;points=[];autosize=1;strokeColor=#314354;fillColor=#647687;fontColor=#ffffff;" parent="1" vertex="1">
          <mxGeometry x="80" y="1030" width="200" height="60" as="geometry" />
        </mxCell>
        <mxCell id="XowecS3ShDzNfdt04L-r-2" value="" style="whiteSpace=wrap;html=1;fillColor=none;" parent="1" vertex="1">
          <mxGeometry x="41" y="910" width="279" height="210" as="geometry" />
        </mxCell>
        <mxCell id="XowecS3ShDzNfdt04L-r-10" style="edgeStyle=orthogonalEdgeStyle;rounded=1;orthogonalLoop=1;jettySize=auto;html=1;exitX=1;exitY=0.5;exitDx=0;exitDy=0;entryX=1;entryY=0.5;entryDx=0;entryDy=0;curved=0;startArrow=ERone;startFill=0;endArrow=ERone;endFill=0;" parent="1" source="XowecS3ShDzNfdt04L-r-7" target="rA6WR066txMyiisViT2W-77" edge="1">
          <mxGeometry relative="1" as="geometry" />
        </mxCell>
        <mxCell id="zzIU1y1TvYAV49h6aCob-1" value="подойдут в каталог" style="text;html=1;align=center;verticalAlign=middle;resizable=0;points=[];autosize=1;strokeColor=#6F0000;fillColor=#a20025;fontColor=#ffffff;" parent="1" vertex="1">
          <mxGeometry x="930" y="775" width="130" height="30" as="geometry" />
        </mxCell>
        <mxCell id="zzIU1y1TvYAV49h6aCob-11" style="edgeStyle=orthogonalEdgeStyle;rounded=1;orthogonalLoop=1;jettySize=auto;html=1;exitX=0;exitY=0.5;exitDx=0;exitDy=0;entryX=0;entryY=0.5;entryDx=0;entryDy=0;curved=0;endArrow=ERone;endFill=0;startArrow=ERone;startFill=0;" parent="1" source="gGXZxWLlf8FpNy4DOuPM-7" target="rA6WR066txMyiisViT2W-115" edge="1">
          <mxGeometry relative="1" as="geometry">
            <Array as="points">
              <mxPoint x="900" y="1145" />
              <mxPoint x="900" y="1010" />
            </Array>
          </mxGeometry>
        </mxCell>
        <mxCell id="zzIU1y1TvYAV49h6aCob-12" style="edgeStyle=orthogonalEdgeStyle;rounded=1;orthogonalLoop=1;jettySize=auto;html=1;exitX=0;exitY=0.5;exitDx=0;exitDy=0;entryX=0;entryY=0.5;entryDx=0;entryDy=0;curved=0;startArrow=ERmany;startFill=0;endArrow=ERone;endFill=0;" parent="1" source="rA6WR066txMyiisViT2W-97" target="rA6WR066txMyiisViT2W-69" edge="1">
          <mxGeometry relative="1" as="geometry">
            <Array as="points">
              <mxPoint x="900" y="860" />
              <mxPoint x="900" y="275" />
            </Array>
          </mxGeometry>
        </mxCell>
        <mxCell id="zzIU1y1TvYAV49h6aCob-16" style="edgeStyle=orthogonalEdgeStyle;rounded=1;orthogonalLoop=1;jettySize=auto;html=1;exitX=1;exitY=0.5;exitDx=0;exitDy=0;entryX=1;entryY=0.5;entryDx=0;entryDy=0;curved=0;startArrow=ERone;startFill=0;endArrow=ERone;endFill=0;" parent="1" source="rA6WR066txMyiisViT2W-63" target="zzIU1y1TvYAV49h6aCob-2" edge="1">
          <mxGeometry relative="1" as="geometry">
            <Array as="points">
              <mxPoint x="1240" y="245" />
              <mxPoint x="1240" y="535" />
            </Array>
          </mxGeometry>
        </mxCell>
        <mxCell id="zzIU1y1TvYAV49h6aCob-20" value="?????????????&lt;br&gt;" style="text;html=1;align=center;verticalAlign=middle;resizable=0;points=[];autosize=1;strokeColor=none;fillColor=none;" parent="1" vertex="1">
          <mxGeometry x="490" y="480" width="110" height="30" as="geometry" />
        </mxCell>
        <mxCell id="zzIU1y1TvYAV49h6aCob-21" value="почему нет customer id" style="text;html=1;align=center;verticalAlign=middle;resizable=0;points=[];autosize=1;strokeColor=none;fillColor=none;" parent="1" vertex="1">
          <mxGeometry x="590" y="490" width="150" height="30" as="geometry" />
        </mxCell>
        <mxCell id="zzIU1y1TvYAV49h6aCob-25" style="edgeStyle=orthogonalEdgeStyle;rounded=1;orthogonalLoop=1;jettySize=auto;html=1;exitX=1;exitY=0.5;exitDx=0;exitDy=0;entryX=0;entryY=0.5;entryDx=0;entryDy=0;curved=0;startArrow=ERone;startFill=0;endArrow=ERone;endFill=0;fillColor=#a20025;strokeColor=#6F0000;" parent="1" source="y0-ZDK3abk4FL_K51jzE-4" target="y7KOnIZi-0CqH0vlRaBg-1" edge="1">
          <mxGeometry relative="1" as="geometry">
            <Array as="points">
              <mxPoint x="880" y="605" />
              <mxPoint x="880" y="565" />
            </Array>
          </mxGeometry>
        </mxCell>
        <mxCell id="zzIU1y1TvYAV49h6aCob-26" value="если в дроугие таблицы делиться&amp;nbsp;&lt;br&gt;product_property_id, то&lt;br&gt;мы можем свойства&lt;br&gt;использовать &lt;br&gt;и в basket,&lt;br&gt;и в order_details&amp;nbsp;" style="text;html=1;align=center;verticalAlign=middle;resizable=0;points=[];autosize=1;strokeColor=#314354;fillColor=#647687;fontColor=#ffffff;" parent="1" vertex="1">
          <mxGeometry x="1250" y="560" width="220" height="100" as="geometry" />
        </mxCell>
        <mxCell id="bUC9IBFihGPy7ka7xbm9-1" value="Review" style="shape=table;startSize=30;container=1;collapsible=1;childLayout=tableLayout;fixedRows=1;rowLines=0;fontStyle=1;align=center;resizeLast=1;labelBackgroundColor=none;rounded=0;" vertex="1" parent="1">
          <mxGeometry x="-240" y="660" width="270" height="130" as="geometry" />
        </mxCell>
        <mxCell id="bUC9IBFihGPy7ka7xbm9-2" value="" style="shape=partialRectangle;collapsible=0;dropTarget=0;pointerEvents=0;fillColor=none;points=[[0,0.5],[1,0.5]];portConstraint=eastwest;top=0;left=0;right=0;bottom=1;labelBackgroundColor=none;rounded=0;" vertex="1" parent="bUC9IBFihGPy7ka7xbm9-1">
          <mxGeometry y="30" width="270" height="30" as="geometry" />
        </mxCell>
        <mxCell id="bUC9IBFihGPy7ka7xbm9-3" value="PK" style="shape=partialRectangle;overflow=hidden;connectable=0;fillColor=none;top=0;left=0;bottom=0;right=0;fontStyle=1;labelBackgroundColor=none;rounded=0;" vertex="1" parent="bUC9IBFihGPy7ka7xbm9-2">
          <mxGeometry width="30" height="30" as="geometry">
            <mxRectangle width="30" height="30" as="alternateBounds" />
          </mxGeometry>
        </mxCell>
        <mxCell id="bUC9IBFihGPy7ka7xbm9-4" value="review_id SERIAL NOT NULL" style="shape=partialRectangle;overflow=hidden;connectable=0;fillColor=none;top=0;left=0;bottom=0;right=0;align=left;spacingLeft=6;fontStyle=0;labelBackgroundColor=none;rounded=0;" vertex="1" parent="bUC9IBFihGPy7ka7xbm9-2">
          <mxGeometry x="30" width="240" height="30" as="geometry">
            <mxRectangle width="240" height="30" as="alternateBounds" />
          </mxGeometry>
        </mxCell>
        <mxCell id="bUC9IBFihGPy7ka7xbm9-9" value="" style="shape=partialRectangle;collapsible=0;dropTarget=0;pointerEvents=0;fillColor=none;points=[[0,0.5],[1,0.5]];portConstraint=eastwest;top=0;left=0;right=0;bottom=0;labelBackgroundColor=none;rounded=0;" vertex="1" parent="bUC9IBFihGPy7ka7xbm9-1">
          <mxGeometry y="60" width="270" height="30" as="geometry" />
        </mxCell>
        <mxCell id="bUC9IBFihGPy7ka7xbm9-10" value="" style="shape=partialRectangle;overflow=hidden;connectable=0;fillColor=none;top=0;left=0;bottom=0;right=0;labelBackgroundColor=none;rounded=0;" vertex="1" parent="bUC9IBFihGPy7ka7xbm9-9">
          <mxGeometry width="30" height="30" as="geometry">
            <mxRectangle width="30" height="30" as="alternateBounds" />
          </mxGeometry>
        </mxCell>
        <mxCell id="bUC9IBFihGPy7ka7xbm9-11" value="review_text text NOT NULL" style="shape=partialRectangle;overflow=hidden;connectable=0;fillColor=none;top=0;left=0;bottom=0;right=0;align=left;spacingLeft=6;labelBackgroundColor=none;fontStyle=0;rounded=0;" vertex="1" parent="bUC9IBFihGPy7ka7xbm9-9">
          <mxGeometry x="30" width="240" height="30" as="geometry">
            <mxRectangle width="240" height="30" as="alternateBounds" />
          </mxGeometry>
        </mxCell>
        <mxCell id="bUC9IBFihGPy7ka7xbm9-5" value="" style="shape=partialRectangle;collapsible=0;dropTarget=0;pointerEvents=0;fillColor=none;points=[[0,0.5],[1,0.5]];portConstraint=eastwest;top=0;left=0;right=0;bottom=0;labelBackgroundColor=none;rounded=0;" vertex="1" parent="bUC9IBFihGPy7ka7xbm9-1">
          <mxGeometry y="90" width="270" height="30" as="geometry" />
        </mxCell>
        <mxCell id="bUC9IBFihGPy7ka7xbm9-6" value="FK" style="shape=partialRectangle;overflow=hidden;connectable=0;fillColor=none;top=0;left=0;bottom=0;right=0;labelBackgroundColor=none;rounded=0;" vertex="1" parent="bUC9IBFihGPy7ka7xbm9-5">
          <mxGeometry width="30" height="30" as="geometry">
            <mxRectangle width="30" height="30" as="alternateBounds" />
          </mxGeometry>
        </mxCell>
        <mxCell id="bUC9IBFihGPy7ka7xbm9-7" value="fk_customer_id UUID NOT NULL" style="shape=partialRectangle;overflow=hidden;connectable=0;fillColor=none;top=0;left=0;bottom=0;right=0;align=left;spacingLeft=6;labelBackgroundColor=none;fontStyle=0;rounded=0;" vertex="1" parent="bUC9IBFihGPy7ka7xbm9-5">
          <mxGeometry x="30" width="240" height="30" as="geometry">
            <mxRectangle width="240" height="30" as="alternateBounds" />
          </mxGeometry>
        </mxCell>
        <mxCell id="bUC9IBFihGPy7ka7xbm9-8" style="edgeStyle=orthogonalEdgeStyle;rounded=1;orthogonalLoop=1;jettySize=auto;html=1;exitX=0;exitY=0.5;exitDx=0;exitDy=0;curved=0;startArrow=ERone;startFill=0;endArrow=ERmany;endFill=0;entryX=0;entryY=0.5;entryDx=0;entryDy=0;" edge="1" parent="1" source="rA6WR066txMyiisViT2W-3" target="bUC9IBFihGPy7ka7xbm9-5">
          <mxGeometry relative="1" as="geometry">
            <mxPoint x="-240" y="705" as="targetPoint" />
            <Array as="points">
              <mxPoint x="460" y="245" />
              <mxPoint x="460" y="170" />
              <mxPoint x="-270" y="170" />
              <mxPoint x="-270" y="765" />
            </Array>
          </mxGeometry>
        </mxCell>
      </root>
    </mxGraphModel>
  </diagram>
  <diagram id="YqpygNkjq9YBhPjN2wbk" name="Страница — 2">
    <mxGraphModel dx="1503" dy="6" grid="1" gridSize="10" guides="1" tooltips="1" connect="1" arrows="1" fold="1" page="1" pageScale="1" pageWidth="850" pageHeight="1100" math="0" shadow="0">
      <root>
        <mxCell id="0" />
        <mxCell id="1" parent="0" />
        <mxCell id="Pmw1mJ2NDRBwuVRoaaNp-1" style="edgeStyle=orthogonalEdgeStyle;rounded=0;orthogonalLoop=1;jettySize=auto;html=1;exitX=1;exitY=0.5;exitDx=0;exitDy=0;entryX=0;entryY=0.5;entryDx=0;entryDy=0;" edge="1" parent="1" source="Pmw1mJ2NDRBwuVRoaaNp-2" target="Pmw1mJ2NDRBwuVRoaaNp-4">
          <mxGeometry relative="1" as="geometry" />
        </mxCell>
        <mxCell id="Pmw1mJ2NDRBwuVRoaaNp-2" value="1" style="ellipse;whiteSpace=wrap;html=1;aspect=fixed;" vertex="1" parent="1">
          <mxGeometry x="40" y="1760" width="40" height="40" as="geometry" />
        </mxCell>
        <mxCell id="Pmw1mJ2NDRBwuVRoaaNp-3" style="edgeStyle=orthogonalEdgeStyle;rounded=0;orthogonalLoop=1;jettySize=auto;html=1;exitX=1;exitY=0.5;exitDx=0;exitDy=0;entryX=0;entryY=0.5;entryDx=0;entryDy=0;dashed=1;" edge="1" parent="1" source="Pmw1mJ2NDRBwuVRoaaNp-4" target="Pmw1mJ2NDRBwuVRoaaNp-9">
          <mxGeometry relative="1" as="geometry" />
        </mxCell>
        <mxCell id="Pmw1mJ2NDRBwuVRoaaNp-4" value="2" style="ellipse;whiteSpace=wrap;html=1;aspect=fixed;" vertex="1" parent="1">
          <mxGeometry x="180" y="1760" width="40" height="40" as="geometry" />
        </mxCell>
        <mxCell id="Pmw1mJ2NDRBwuVRoaaNp-5" value="z1/2" style="text;html=1;align=center;verticalAlign=middle;resizable=0;points=[];autosize=1;strokeColor=none;fillColor=none;" vertex="1" parent="1">
          <mxGeometry x="105" y="1758" width="50" height="30" as="geometry" />
        </mxCell>
        <mxCell id="Pmw1mJ2NDRBwuVRoaaNp-6" style="rounded=0;orthogonalLoop=1;jettySize=auto;html=1;exitX=1;exitY=0;exitDx=0;exitDy=0;entryX=0;entryY=1;entryDx=0;entryDy=0;dashed=1;" edge="1" parent="1" source="Pmw1mJ2NDRBwuVRoaaNp-7" target="Pmw1mJ2NDRBwuVRoaaNp-9">
          <mxGeometry relative="1" as="geometry" />
        </mxCell>
        <mxCell id="Pmw1mJ2NDRBwuVRoaaNp-7" value="4" style="ellipse;whiteSpace=wrap;html=1;aspect=fixed;" vertex="1" parent="1">
          <mxGeometry x="180" y="1880" width="40" height="40" as="geometry" />
        </mxCell>
        <mxCell id="Pmw1mJ2NDRBwuVRoaaNp-8" style="edgeStyle=orthogonalEdgeStyle;rounded=0;orthogonalLoop=1;jettySize=auto;html=1;exitX=1;exitY=0.5;exitDx=0;exitDy=0;entryX=0;entryY=0.5;entryDx=0;entryDy=0;" edge="1" parent="1" source="Pmw1mJ2NDRBwuVRoaaNp-9" target="Pmw1mJ2NDRBwuVRoaaNp-14">
          <mxGeometry relative="1" as="geometry" />
        </mxCell>
        <mxCell id="Pmw1mJ2NDRBwuVRoaaNp-9" value="3" style="ellipse;whiteSpace=wrap;html=1;aspect=fixed;" vertex="1" parent="1">
          <mxGeometry x="320" y="1760" width="40" height="40" as="geometry" />
        </mxCell>
        <mxCell id="Pmw1mJ2NDRBwuVRoaaNp-10" style="rounded=0;orthogonalLoop=1;jettySize=auto;html=1;exitX=1;exitY=1;exitDx=0;exitDy=0;entryX=0.039;entryY=0.304;entryDx=0;entryDy=0;entryPerimeter=0;" edge="1" parent="1" source="Pmw1mJ2NDRBwuVRoaaNp-2" target="Pmw1mJ2NDRBwuVRoaaNp-7">
          <mxGeometry relative="1" as="geometry" />
        </mxCell>
        <mxCell id="Pmw1mJ2NDRBwuVRoaaNp-11" value="z1/4" style="text;html=1;align=center;verticalAlign=middle;resizable=0;points=[];autosize=1;strokeColor=none;fillColor=none;" vertex="1" parent="1">
          <mxGeometry x="120" y="1830" width="50" height="30" as="geometry" />
        </mxCell>
        <mxCell id="Pmw1mJ2NDRBwuVRoaaNp-12" value="z2/3" style="text;html=1;align=center;verticalAlign=middle;resizable=0;points=[];autosize=1;strokeColor=none;fillColor=none;" vertex="1" parent="1">
          <mxGeometry x="235" y="1748" width="50" height="30" as="geometry" />
        </mxCell>
        <mxCell id="Pmw1mJ2NDRBwuVRoaaNp-13" value="z4/3" style="text;html=1;align=center;verticalAlign=middle;resizable=0;points=[];autosize=1;strokeColor=none;fillColor=none;" vertex="1" parent="1">
          <mxGeometry x="235" y="1818" width="50" height="30" as="geometry" />
        </mxCell>
        <mxCell id="Pmw1mJ2NDRBwuVRoaaNp-14" value="5" style="ellipse;whiteSpace=wrap;html=1;aspect=fixed;" vertex="1" parent="1">
          <mxGeometry x="480" y="1760" width="40" height="40" as="geometry" />
        </mxCell>
        <mxCell id="Pmw1mJ2NDRBwuVRoaaNp-15" value="z3/5" style="text;html=1;align=center;verticalAlign=middle;resizable=0;points=[];autosize=1;strokeColor=none;fillColor=none;" vertex="1" parent="1">
          <mxGeometry x="380" y="1748" width="50" height="30" as="geometry" />
        </mxCell>
        <mxCell id="Pmw1mJ2NDRBwuVRoaaNp-16" value="7" style="ellipse;whiteSpace=wrap;html=1;aspect=fixed;" vertex="1" parent="1">
          <mxGeometry x="600" y="1680" width="40" height="40" as="geometry" />
        </mxCell>
        <mxCell id="Pmw1mJ2NDRBwuVRoaaNp-17" value="8" style="ellipse;whiteSpace=wrap;html=1;aspect=fixed;" vertex="1" parent="1">
          <mxGeometry x="600" y="1840" width="40" height="40" as="geometry" />
        </mxCell>
        <mxCell id="Pmw1mJ2NDRBwuVRoaaNp-18" style="rounded=0;orthogonalLoop=1;jettySize=auto;html=1;exitX=1;exitY=0;exitDx=0;exitDy=0;entryX=-0.002;entryY=0.881;entryDx=0;entryDy=0;entryPerimeter=0;" edge="1" parent="1" source="Pmw1mJ2NDRBwuVRoaaNp-14" target="Pmw1mJ2NDRBwuVRoaaNp-16">
          <mxGeometry relative="1" as="geometry" />
        </mxCell>
        <mxCell id="Pmw1mJ2NDRBwuVRoaaNp-19" style="rounded=0;orthogonalLoop=1;jettySize=auto;html=1;exitX=1;exitY=1;exitDx=0;exitDy=0;entryX=0;entryY=0;entryDx=0;entryDy=0;" edge="1" parent="1" source="Pmw1mJ2NDRBwuVRoaaNp-14" target="Pmw1mJ2NDRBwuVRoaaNp-17">
          <mxGeometry relative="1" as="geometry">
            <mxPoint x="524" y="1776" as="sourcePoint" />
            <mxPoint x="610" y="1725" as="targetPoint" />
          </mxGeometry>
        </mxCell>
        <mxCell id="Pmw1mJ2NDRBwuVRoaaNp-20" style="edgeStyle=orthogonalEdgeStyle;rounded=0;orthogonalLoop=1;jettySize=auto;html=1;exitX=1;exitY=0.5;exitDx=0;exitDy=0;entryX=0;entryY=0.5;entryDx=0;entryDy=0;" edge="1" parent="1" source="Pmw1mJ2NDRBwuVRoaaNp-22" target="Pmw1mJ2NDRBwuVRoaaNp-30">
          <mxGeometry relative="1" as="geometry" />
        </mxCell>
        <mxCell id="Pmw1mJ2NDRBwuVRoaaNp-21" style="rounded=0;orthogonalLoop=1;jettySize=auto;html=1;exitX=1;exitY=1;exitDx=0;exitDy=0;entryX=0;entryY=0;entryDx=0;entryDy=0;" edge="1" parent="1" source="Pmw1mJ2NDRBwuVRoaaNp-22" target="Pmw1mJ2NDRBwuVRoaaNp-33">
          <mxGeometry relative="1" as="geometry" />
        </mxCell>
        <mxCell id="Pmw1mJ2NDRBwuVRoaaNp-22" value="6" style="ellipse;whiteSpace=wrap;html=1;aspect=fixed;" vertex="1" parent="1">
          <mxGeometry x="720" y="1760" width="40" height="40" as="geometry" />
        </mxCell>
        <mxCell id="Pmw1mJ2NDRBwuVRoaaNp-23" style="rounded=0;orthogonalLoop=1;jettySize=auto;html=1;exitX=1;exitY=0;exitDx=0;exitDy=0;entryX=0;entryY=1;entryDx=0;entryDy=0;dashed=1;" edge="1" parent="1" source="Pmw1mJ2NDRBwuVRoaaNp-17" target="Pmw1mJ2NDRBwuVRoaaNp-22">
          <mxGeometry relative="1" as="geometry">
            <mxPoint x="524" y="1776" as="sourcePoint" />
            <mxPoint x="610" y="1725" as="targetPoint" />
          </mxGeometry>
        </mxCell>
        <mxCell id="Pmw1mJ2NDRBwuVRoaaNp-24" style="rounded=0;orthogonalLoop=1;jettySize=auto;html=1;exitX=0.967;exitY=0.707;exitDx=0;exitDy=0;entryX=0;entryY=0;entryDx=0;entryDy=0;exitPerimeter=0;dashed=1;" edge="1" parent="1" source="Pmw1mJ2NDRBwuVRoaaNp-16" target="Pmw1mJ2NDRBwuVRoaaNp-22">
          <mxGeometry relative="1" as="geometry">
            <mxPoint x="644" y="1856" as="sourcePoint" />
            <mxPoint x="736" y="1804" as="targetPoint" />
          </mxGeometry>
        </mxCell>
        <mxCell id="Pmw1mJ2NDRBwuVRoaaNp-25" value="z5/7" style="text;html=1;align=center;verticalAlign=middle;resizable=0;points=[];autosize=1;strokeColor=none;fillColor=none;" vertex="1" parent="1">
          <mxGeometry x="525" y="1708" width="50" height="30" as="geometry" />
        </mxCell>
        <mxCell id="Pmw1mJ2NDRBwuVRoaaNp-26" value="z5/8" style="text;html=1;align=center;verticalAlign=middle;resizable=0;points=[];autosize=1;strokeColor=none;fillColor=none;" vertex="1" parent="1">
          <mxGeometry x="545" y="1798" width="50" height="30" as="geometry" />
        </mxCell>
        <mxCell id="Pmw1mJ2NDRBwuVRoaaNp-27" value="z7/6" style="text;html=1;align=center;verticalAlign=middle;resizable=0;points=[];autosize=1;strokeColor=none;fillColor=none;" vertex="1" parent="1">
          <mxGeometry x="670" y="1708" width="50" height="30" as="geometry" />
        </mxCell>
        <mxCell id="Pmw1mJ2NDRBwuVRoaaNp-28" value="z8/6" style="text;html=1;align=center;verticalAlign=middle;resizable=0;points=[];autosize=1;strokeColor=none;fillColor=none;" vertex="1" parent="1">
          <mxGeometry x="645" y="1798" width="50" height="30" as="geometry" />
        </mxCell>
        <mxCell id="Pmw1mJ2NDRBwuVRoaaNp-29" style="edgeStyle=orthogonalEdgeStyle;rounded=0;orthogonalLoop=1;jettySize=auto;html=1;exitX=1;exitY=0.5;exitDx=0;exitDy=0;entryX=0;entryY=0.5;entryDx=0;entryDy=0;dashed=1;" edge="1" parent="1" source="Pmw1mJ2NDRBwuVRoaaNp-30" target="Pmw1mJ2NDRBwuVRoaaNp-35">
          <mxGeometry relative="1" as="geometry" />
        </mxCell>
        <mxCell id="Pmw1mJ2NDRBwuVRoaaNp-30" value="9" style="ellipse;whiteSpace=wrap;html=1;aspect=fixed;" vertex="1" parent="1">
          <mxGeometry x="880" y="1760" width="40" height="40" as="geometry" />
        </mxCell>
        <mxCell id="Pmw1mJ2NDRBwuVRoaaNp-31" value="z6/9" style="text;html=1;align=center;verticalAlign=middle;resizable=0;points=[];autosize=1;strokeColor=none;fillColor=none;" vertex="1" parent="1">
          <mxGeometry x="800" y="1758" width="50" height="30" as="geometry" />
        </mxCell>
        <mxCell id="Pmw1mJ2NDRBwuVRoaaNp-32" style="rounded=0;orthogonalLoop=1;jettySize=auto;html=1;exitX=1;exitY=0;exitDx=0;exitDy=0;entryX=0;entryY=1;entryDx=0;entryDy=0;dashed=1;" edge="1" parent="1" source="Pmw1mJ2NDRBwuVRoaaNp-33" target="Pmw1mJ2NDRBwuVRoaaNp-35">
          <mxGeometry relative="1" as="geometry" />
        </mxCell>
        <mxCell id="Pmw1mJ2NDRBwuVRoaaNp-33" value="12" style="ellipse;whiteSpace=wrap;html=1;aspect=fixed;" vertex="1" parent="1">
          <mxGeometry x="880" y="1880" width="40" height="40" as="geometry" />
        </mxCell>
        <mxCell id="Pmw1mJ2NDRBwuVRoaaNp-34" style="edgeStyle=orthogonalEdgeStyle;rounded=0;orthogonalLoop=1;jettySize=auto;html=1;exitX=0.5;exitY=1;exitDx=0;exitDy=0;entryX=0.5;entryY=0;entryDx=0;entryDy=0;" edge="1" parent="1" source="Pmw1mJ2NDRBwuVRoaaNp-35" target="Pmw1mJ2NDRBwuVRoaaNp-37">
          <mxGeometry relative="1" as="geometry">
            <Array as="points">
              <mxPoint x="1060" y="1960" />
              <mxPoint x="60" y="1960" />
            </Array>
          </mxGeometry>
        </mxCell>
        <mxCell id="Pmw1mJ2NDRBwuVRoaaNp-35" value="10" style="ellipse;whiteSpace=wrap;html=1;aspect=fixed;" vertex="1" parent="1">
          <mxGeometry x="1040" y="1760" width="40" height="40" as="geometry" />
        </mxCell>
        <mxCell id="Pmw1mJ2NDRBwuVRoaaNp-36" style="edgeStyle=orthogonalEdgeStyle;rounded=0;orthogonalLoop=1;jettySize=auto;html=1;exitX=1;exitY=0.5;exitDx=0;exitDy=0;entryX=0;entryY=0.5;entryDx=0;entryDy=0;" edge="1" parent="1" source="Pmw1mJ2NDRBwuVRoaaNp-37" target="Pmw1mJ2NDRBwuVRoaaNp-41">
          <mxGeometry relative="1" as="geometry" />
        </mxCell>
        <mxCell id="Pmw1mJ2NDRBwuVRoaaNp-37" value="11" style="ellipse;whiteSpace=wrap;html=1;aspect=fixed;" vertex="1" parent="1">
          <mxGeometry x="40" y="2121" width="40" height="40" as="geometry" />
        </mxCell>
        <mxCell id="Pmw1mJ2NDRBwuVRoaaNp-38" style="edgeStyle=orthogonalEdgeStyle;rounded=0;orthogonalLoop=1;jettySize=auto;html=1;exitX=1;exitY=0.5;exitDx=0;exitDy=0;entryX=0;entryY=0.5;entryDx=0;entryDy=0;" edge="1" parent="1" source="Pmw1mJ2NDRBwuVRoaaNp-41" target="Pmw1mJ2NDRBwuVRoaaNp-44">
          <mxGeometry relative="1" as="geometry" />
        </mxCell>
        <mxCell id="Pmw1mJ2NDRBwuVRoaaNp-39" style="rounded=0;orthogonalLoop=1;jettySize=auto;html=1;exitX=1;exitY=1;exitDx=0;exitDy=0;entryX=0;entryY=0;entryDx=0;entryDy=0;" edge="1" parent="1" source="Pmw1mJ2NDRBwuVRoaaNp-41" target="Pmw1mJ2NDRBwuVRoaaNp-46">
          <mxGeometry relative="1" as="geometry" />
        </mxCell>
        <mxCell id="Pmw1mJ2NDRBwuVRoaaNp-40" style="rounded=0;orthogonalLoop=1;jettySize=auto;html=1;exitX=1;exitY=0;exitDx=0;exitDy=0;entryX=0;entryY=1;entryDx=0;entryDy=0;" edge="1" parent="1" source="Pmw1mJ2NDRBwuVRoaaNp-41" target="Pmw1mJ2NDRBwuVRoaaNp-48">
          <mxGeometry relative="1" as="geometry" />
        </mxCell>
        <mxCell id="Pmw1mJ2NDRBwuVRoaaNp-41" value="13" style="ellipse;whiteSpace=wrap;html=1;aspect=fixed;" vertex="1" parent="1">
          <mxGeometry x="180" y="2121" width="40" height="40" as="geometry" />
        </mxCell>
        <mxCell id="Pmw1mJ2NDRBwuVRoaaNp-42" style="rounded=0;orthogonalLoop=1;jettySize=auto;html=1;exitX=1;exitY=0.5;exitDx=0;exitDy=0;entryX=0;entryY=0.5;entryDx=0;entryDy=0;" edge="1" parent="1" source="Pmw1mJ2NDRBwuVRoaaNp-44" target="Pmw1mJ2NDRBwuVRoaaNp-50">
          <mxGeometry relative="1" as="geometry" />
        </mxCell>
        <mxCell id="Pmw1mJ2NDRBwuVRoaaNp-43" style="rounded=0;orthogonalLoop=1;jettySize=auto;html=1;exitX=1;exitY=0.5;exitDx=0;exitDy=0;entryX=0;entryY=0.5;entryDx=0;entryDy=0;" edge="1" parent="1" source="Pmw1mJ2NDRBwuVRoaaNp-44" target="Pmw1mJ2NDRBwuVRoaaNp-51">
          <mxGeometry relative="1" as="geometry" />
        </mxCell>
        <mxCell id="Pmw1mJ2NDRBwuVRoaaNp-44" value="14" style="ellipse;whiteSpace=wrap;html=1;aspect=fixed;" vertex="1" parent="1">
          <mxGeometry x="320" y="2121" width="40" height="40" as="geometry" />
        </mxCell>
        <mxCell id="Pmw1mJ2NDRBwuVRoaaNp-45" style="rounded=0;orthogonalLoop=1;jettySize=auto;html=1;exitX=1;exitY=0;exitDx=0;exitDy=0;entryX=0;entryY=1;entryDx=0;entryDy=0;dashed=1;" edge="1" parent="1" source="Pmw1mJ2NDRBwuVRoaaNp-46" target="Pmw1mJ2NDRBwuVRoaaNp-50">
          <mxGeometry relative="1" as="geometry" />
        </mxCell>
        <mxCell id="Pmw1mJ2NDRBwuVRoaaNp-46" value="15" style="ellipse;whiteSpace=wrap;html=1;aspect=fixed;" vertex="1" parent="1">
          <mxGeometry x="320" y="2241" width="40" height="40" as="geometry" />
        </mxCell>
        <mxCell id="Pmw1mJ2NDRBwuVRoaaNp-47" style="rounded=0;orthogonalLoop=1;jettySize=auto;html=1;exitX=1;exitY=1;exitDx=0;exitDy=0;entryX=0;entryY=0;entryDx=0;entryDy=0;dashed=1;" edge="1" parent="1" source="Pmw1mJ2NDRBwuVRoaaNp-48" target="Pmw1mJ2NDRBwuVRoaaNp-50">
          <mxGeometry relative="1" as="geometry" />
        </mxCell>
        <mxCell id="Pmw1mJ2NDRBwuVRoaaNp-48" value="16" style="ellipse;whiteSpace=wrap;html=1;aspect=fixed;" vertex="1" parent="1">
          <mxGeometry x="320" y="2000" width="40" height="40" as="geometry" />
        </mxCell>
        <mxCell id="Pmw1mJ2NDRBwuVRoaaNp-49" style="rounded=0;orthogonalLoop=1;jettySize=auto;html=1;exitX=1;exitY=1;exitDx=0;exitDy=0;entryX=0;entryY=0.5;entryDx=0;entryDy=0;dashed=1;" edge="1" parent="1" source="Pmw1mJ2NDRBwuVRoaaNp-50" target="Pmw1mJ2NDRBwuVRoaaNp-55">
          <mxGeometry relative="1" as="geometry" />
        </mxCell>
        <mxCell id="Pmw1mJ2NDRBwuVRoaaNp-50" value="18" style="ellipse;whiteSpace=wrap;html=1;aspect=fixed;" vertex="1" parent="1">
          <mxGeometry x="480" y="2081" width="40" height="40" as="geometry" />
        </mxCell>
        <mxCell id="Pmw1mJ2NDRBwuVRoaaNp-51" value="19" style="ellipse;whiteSpace=wrap;html=1;aspect=fixed;" vertex="1" parent="1">
          <mxGeometry x="480" y="2161" width="40" height="40" as="geometry" />
        </mxCell>
        <mxCell id="Pmw1mJ2NDRBwuVRoaaNp-52" style="rounded=0;orthogonalLoop=1;jettySize=auto;html=1;exitX=1;exitY=1;exitDx=0;exitDy=0;entryX=0;entryY=0;entryDx=0;entryDy=0;dashed=1;" edge="1" parent="1" source="Pmw1mJ2NDRBwuVRoaaNp-48" target="Pmw1mJ2NDRBwuVRoaaNp-51">
          <mxGeometry relative="1" as="geometry">
            <mxPoint x="364" y="2044" as="sourcePoint" />
            <mxPoint x="496" y="2097" as="targetPoint" />
          </mxGeometry>
        </mxCell>
        <mxCell id="Pmw1mJ2NDRBwuVRoaaNp-53" style="rounded=0;orthogonalLoop=1;jettySize=auto;html=1;exitX=1;exitY=0;exitDx=0;exitDy=0;dashed=1;" edge="1" parent="1" source="Pmw1mJ2NDRBwuVRoaaNp-46" target="Pmw1mJ2NDRBwuVRoaaNp-51">
          <mxGeometry relative="1" as="geometry">
            <mxPoint x="364" y="2257" as="sourcePoint" />
            <mxPoint x="496" y="2125" as="targetPoint" />
          </mxGeometry>
        </mxCell>
        <mxCell id="Pmw1mJ2NDRBwuVRoaaNp-54" style="edgeStyle=orthogonalEdgeStyle;rounded=0;orthogonalLoop=1;jettySize=auto;html=1;exitX=1;exitY=0.5;exitDx=0;exitDy=0;entryX=0;entryY=0.5;entryDx=0;entryDy=0;" edge="1" parent="1" source="Pmw1mJ2NDRBwuVRoaaNp-55" target="Pmw1mJ2NDRBwuVRoaaNp-57">
          <mxGeometry relative="1" as="geometry" />
        </mxCell>
        <mxCell id="Pmw1mJ2NDRBwuVRoaaNp-55" value="17" style="ellipse;whiteSpace=wrap;html=1;aspect=fixed;" vertex="1" parent="1">
          <mxGeometry x="600" y="2121" width="40" height="40" as="geometry" />
        </mxCell>
        <mxCell id="Pmw1mJ2NDRBwuVRoaaNp-56" style="rounded=0;orthogonalLoop=1;jettySize=auto;html=1;exitX=1;exitY=0;exitDx=0;exitDy=0;entryX=0;entryY=0.5;entryDx=0;entryDy=0;dashed=1;" edge="1" parent="1" source="Pmw1mJ2NDRBwuVRoaaNp-51" target="Pmw1mJ2NDRBwuVRoaaNp-55">
          <mxGeometry relative="1" as="geometry">
            <mxPoint x="524" y="2125" as="sourcePoint" />
            <mxPoint x="610" y="2151" as="targetPoint" />
          </mxGeometry>
        </mxCell>
        <mxCell id="Pmw1mJ2NDRBwuVRoaaNp-57" value="20" style="ellipse;whiteSpace=wrap;html=1;aspect=fixed;" vertex="1" parent="1">
          <mxGeometry x="715" y="2121" width="40" height="40" as="geometry" />
        </mxCell>
        <mxCell id="Pmw1mJ2NDRBwuVRoaaNp-59" value="z6/12" style="text;html=1;align=center;verticalAlign=middle;resizable=0;points=[];autosize=1;strokeColor=none;fillColor=none;" vertex="1" parent="1">
          <mxGeometry x="810" y="1818" width="50" height="30" as="geometry" />
        </mxCell>
        <mxCell id="Pmw1mJ2NDRBwuVRoaaNp-60" value="z9/10" style="text;html=1;align=center;verticalAlign=middle;resizable=0;points=[];autosize=1;strokeColor=none;fillColor=none;" vertex="1" parent="1">
          <mxGeometry x="950" y="1748" width="50" height="30" as="geometry" />
        </mxCell>
        <mxCell id="Pmw1mJ2NDRBwuVRoaaNp-61" value="z12/10" style="text;html=1;align=center;verticalAlign=middle;resizable=0;points=[];autosize=1;strokeColor=none;fillColor=none;" vertex="1" parent="1">
          <mxGeometry x="935" y="1818" width="60" height="30" as="geometry" />
        </mxCell>
        <mxCell id="Pmw1mJ2NDRBwuVRoaaNp-62" value="z10/11" style="text;html=1;align=center;verticalAlign=middle;resizable=0;points=[];autosize=1;strokeColor=none;fillColor=none;" vertex="1" parent="1">
          <mxGeometry x="1000" y="1930" width="60" height="30" as="geometry" />
        </mxCell>
        <mxCell id="Pmw1mJ2NDRBwuVRoaaNp-63" value="z11/13" style="text;html=1;align=center;verticalAlign=middle;resizable=0;points=[];autosize=1;strokeColor=none;fillColor=none;" vertex="1" parent="1">
          <mxGeometry x="100" y="2110" width="60" height="30" as="geometry" />
        </mxCell>
        <mxCell id="Pmw1mJ2NDRBwuVRoaaNp-64" value="z13/16" style="text;html=1;align=center;verticalAlign=middle;resizable=0;points=[];autosize=1;strokeColor=none;fillColor=none;" vertex="1" parent="1">
          <mxGeometry x="230" y="2051" width="60" height="30" as="geometry" />
        </mxCell>
        <mxCell id="Pmw1mJ2NDRBwuVRoaaNp-65" value="z13/14" style="text;html=1;align=center;verticalAlign=middle;resizable=0;points=[];autosize=1;strokeColor=none;fillColor=none;" vertex="1" parent="1">
          <mxGeometry x="240" y="2110" width="60" height="30" as="geometry" />
        </mxCell>
        <mxCell id="Pmw1mJ2NDRBwuVRoaaNp-66" value="z13/15" style="text;html=1;align=center;verticalAlign=middle;resizable=0;points=[];autosize=1;strokeColor=none;fillColor=none;" vertex="1" parent="1">
          <mxGeometry x="250" y="2180" width="60" height="30" as="geometry" />
        </mxCell>
        <mxCell id="Pmw1mJ2NDRBwuVRoaaNp-67" value="z16/18" style="text;html=1;align=center;verticalAlign=middle;resizable=0;points=[];autosize=1;strokeColor=none;fillColor=none;" vertex="1" parent="1">
          <mxGeometry x="400" y="2030" width="60" height="30" as="geometry" />
        </mxCell>
        <mxCell id="Pmw1mJ2NDRBwuVRoaaNp-68" value="z16/19" style="text;html=1;align=center;verticalAlign=middle;resizable=0;points=[];autosize=1;strokeColor=none;fillColor=none;" vertex="1" parent="1">
          <mxGeometry x="340" y="2050" width="60" height="30" as="geometry" />
        </mxCell>
        <mxCell id="Pmw1mJ2NDRBwuVRoaaNp-69" value="z14/18" style="text;html=1;align=center;verticalAlign=middle;resizable=0;points=[];autosize=1;strokeColor=none;fillColor=none;" vertex="1" parent="1">
          <mxGeometry x="360" y="2100" width="60" height="30" as="geometry" />
        </mxCell>
        <mxCell id="Pmw1mJ2NDRBwuVRoaaNp-70" value="z14/19" style="text;html=1;align=center;verticalAlign=middle;resizable=0;points=[];autosize=1;strokeColor=none;fillColor=none;" vertex="1" parent="1">
          <mxGeometry x="365" y="2130" width="60" height="30" as="geometry" />
        </mxCell>
        <mxCell id="Pmw1mJ2NDRBwuVRoaaNp-71" value="z15/18" style="text;html=1;align=center;verticalAlign=middle;resizable=0;points=[];autosize=1;strokeColor=none;fillColor=none;" vertex="1" parent="1">
          <mxGeometry x="340" y="2200" width="60" height="30" as="geometry" />
        </mxCell>
        <mxCell id="Pmw1mJ2NDRBwuVRoaaNp-72" value="z15/19" style="text;html=1;align=center;verticalAlign=middle;resizable=0;points=[];autosize=1;strokeColor=none;fillColor=none;" vertex="1" parent="1">
          <mxGeometry x="395" y="2220" width="60" height="30" as="geometry" />
        </mxCell>
        <mxCell id="Pmw1mJ2NDRBwuVRoaaNp-73" value="z19/17" style="text;html=1;align=center;verticalAlign=middle;resizable=0;points=[];autosize=1;strokeColor=none;fillColor=none;" vertex="1" parent="1">
          <mxGeometry x="530" y="2160" width="60" height="30" as="geometry" />
        </mxCell>
        <mxCell id="Pmw1mJ2NDRBwuVRoaaNp-74" value="z18/17" style="text;html=1;align=center;verticalAlign=middle;resizable=0;points=[];autosize=1;strokeColor=none;fillColor=none;" vertex="1" parent="1">
          <mxGeometry x="525" y="2091" width="60" height="30" as="geometry" />
        </mxCell>
        <mxCell id="Pmw1mJ2NDRBwuVRoaaNp-75" value="z17/20" style="text;html=1;align=center;verticalAlign=middle;resizable=0;points=[];autosize=1;strokeColor=none;fillColor=none;" vertex="1" parent="1">
          <mxGeometry x="640" y="2121" width="60" height="30" as="geometry" />
        </mxCell>
      </root>
    </mxGraphModel>
  </diagram>
</mxfile>
